<?xml version="1.0" encoding="utf-8"?>
<!-- Generator: Adobe Illustrator 22.0.1, SVG Export Plug-In . SVG Version: 6.00 Build 0)  -->
<svg version="1.1" id="Layer_1" xmlns="http://www.w3.org/2000/svg" xmlns:xlink="http://www.w3.org/1999/xlink" x="0px" y="0px"
	 viewBox="0 0 1000 1000" style="enable-background:new 0 0 1000 1000;" xml:space="preserve">
<style type="text/css">
	.st0{fill:#0568AF;}
	.st1{clip-path:url(#SVGID_2_);fill:url(#SVGID_3_);}
	.st2{fill:#BCBDBF;}
	.st3{fill:#FFFFFF;}
</style>
<g>
	<g>
		<path class="st0" d="M785.1,561.2h-17.4c-3.6,0-6.6-2.9-6.6-6.5c0-3.6,2.9-6.5,6.6-6.5h17.4c3.6,0,6.5,2.9,6.5,6.5
			C791.6,558.3,788.7,561.2,785.1,561.2 M785.1,539.4h-17.4c-8.4,0-15.3,6.8-15.3,15.2c0,8.4,6.8,15.3,15.3,15.3h17.4
			c8.4,0,15.2-6.8,15.2-15.3C800.3,546.3,793.5,539.4,785.1,539.4 M716.4,554.7v15.2h8.7v-15.2c0-3.6,2.9-6.5,6.5-6.5h18.1v-8.7
			h-18.1C723.2,539.4,716.4,546.3,716.4,554.7L716.4,554.7z M600,554.7v15.2h8.7v-15.2c0-3.6,2.9-6.5,6.5-6.5h18.2v-8.7h-18.2
			C606.9,539.4,600,546.3,600,554.7L600,554.7z M820.9,569.9h10.5c8.4,0,15.2-6.9,15.2-15.3v-15.2h-8.7v15.2c0,3.6-2.9,6.5-6.5,6.5
			h-10.5c-3.6,0-6.5-2.9-6.5-6.5v-15.2h-8.7v15.2C805.6,563.1,812.5,569.9,820.9,569.9 M586,569.9h8.7V540H586V569.9z M860.3,580.9
			v-26.2c0-3.6,2.9-6.5,6.5-6.5h18.1c3.6,0,6.5,2.9,6.5,6.5c0,3.6-2.9,6.5-6.5,6.5h-18.1v8.7h18.1c8.4,0,15.2-6.8,15.2-15.3
			c0-8.4-6.8-15.2-15.2-15.2h-18.1c-8.4,0-15.2,6.8-15.2,15.2v26.2H860.3z M695,539.4h-18.1c-8.4,0-15.2,6.8-15.2,15.2
			c0,8.4,6.8,15.3,15.2,15.3H695v-8.7h-18.1c-3.6,0-6.5-2.9-6.5-6.5c0-3.6,2.9-6.5,6.5-6.5H695c3.6,0,6.5,2.9,6.5,6.5v11
			c0,3.6-2.9,6.5-6.5,6.5h-14.6v8.7H695c8.4,0,15.2-6.9,15.2-15.3v-11C710.2,546.3,703.4,539.4,695,539.4 M419.7,539.6h-13.6v-11.7
			h-8.7v42h8.7v-21.6h13.6c3.6,0,6.5,2.9,6.5,6.5v15.1h8.7v-15.1C434.9,546.4,428,539.6,419.7,539.6 M571.4,561.2h-22.8
			c-3.6,0-6.5-2.9-6.5-6.5c0-3.6,2.9-6.5,6.5-6.5h22.8V561.2z M533.3,554.7c0,8.4,6.8,15.3,15.3,15.3h31.5v-30.5h-31.5
			C540.1,539.4,533.3,546.3,533.3,554.7 M344.2,561.2h-22.8c-3.6,0-6.5-2.9-6.5-6.5c0-3.6,2.9-6.5,6.5-6.5h22.8V561.2z M306.1,554.7
			c0,8.4,6.8,15.3,15.3,15.3h31.5v-30.5h-31.5C312.9,539.4,306.1,546.3,306.1,554.7 M358.9,569.9h8.7v-42h-8.7V569.9z M472.2,561.2
			h-17.4c-3.6,0-6.5-2.9-6.5-6.5c0-3.6,2.9-6.5,6.5-6.5h17.4c3.6,0,6.5,2.9,6.5,6.5C478.7,558.3,475.8,561.2,472.2,561.2
			 M472.2,539.4h-17.4c-8.4,0-15.3,6.8-15.3,15.2c0,8.4,6.8,15.3,15.3,15.3h17.4c8.4,0,15.2-6.8,15.2-15.3
			C487.4,546.3,480.6,539.4,472.2,539.4 M520.8,547.3c0,3.6-2.9,6.5-6.5,6.5h-13.6v-25.9H492v42h8.7v-7.4h13.6
			c3.6,0,6.5,2.9,6.5,6.5v0.9h8.7V569c0-4.3-1.7-8.1-4.6-10.9c2.8-2.8,4.6-6.6,4.6-10.9v-5.6h-8.7V547.3z"/>
		<path class="st0" d="M827.3,471.3v6.6h-41.1c-1.9-6.3-7.8-10.9-14.7-10.9h-11.1c-7,0-12.8,4.6-14.7,10.9h-22v-6.6
			c0-8.5-6.9-15.4-15.4-15.4H690c-8.5,0-15.4,6.9-15.4,15.4c0,8.5,6.9,15.4,15.4,15.4h18.3v-8.8H690c-3.6,0-6.6-3-6.6-6.6
			c0-3.6,3-6.6,6.6-6.6h18.3v0c3.6,0,6.6,3,6.6,6.6v11.1c0,3.6-3,6.6-6.6,6.6h-14.7v8.8h14.7c7,0,12.9-4.7,14.8-11.1h22.6
			c1.9,6.4,7.8,11.1,14.8,11.1h11.1c7,0,12.9-4.7,14.8-11.1h98.5c8.5,0,15.4-6.9,15.4-15.4c0-8.5-6.9-15.4-15.4-15.4H858V474h8.8
			v-9.3h18c3.6,0,6.6,3,6.6,6.6c0,3.6-3,6.6-6.6,6.6h-48.7v-6.6 M771.5,489h-11.1c-3.6,0-6.6-3-6.6-6.6c0-3.7,3-6.6,6.6-6.6h11.1
			c3.6,0,6.6,3,6.6,6.6C778.1,486,775.1,489,771.5,489 M534.3,486h8.8v-41.8h-8.8V486z M483.9,471.3v6.6h-40.5v-6.4
			c0-8.5-6.9-15.4-15.4-15.4h-27.2c-3.6,0-6.6-3-6.6-6.6v-5.3h-8.8v5.3c0,8.5,6.9,15.4,15.4,15.4H428c3.6,0,6.6,3,6.6,6.6v6.4h-62.9
			v-21.4h-8.8v21.4h-25.7v-6.6c0-8.5-6.9-15.4-15.4-15.4v8.8c3.6,0,6.6,3,6.6,6.6v11.1l0,0c0,3.6-3,6.6-6.6,6.6h-14.7v8.8h14.7
			c7,0,12.9-4.7,14.8-11.1h173.4c11.1,0,18-6.9,18-15.4v-27.1h-8.8v27.1c0,3.6-3,6.6-6.6,6.6h-19.8v-6.6c0-8.5-6.9-15.4-15.4-15.4
			h-23.1v8.8h23.1C481,464.7,484,467.7,483.9,471.3L483.9,471.3z M594,477.9H580c-3.6,0-6.6-3-6.6-6.6c0-3.6,3-6.6,6.6-6.6H594
			V477.9z M629.6,471.3c0,2.3,0.5,4.6,1.5,6.6h-28.3v-22H580c-8.5,0-15.4,6.9-15.4,15.4c0,8.5,6.9,15.4,15.4,15.4h88v-8.8H645
			c-3.6,0-6.6-3-6.6-6.6c0-3.6,3-6.6,6.6-6.6H668v-8.8H645C636.5,455.9,629.6,462.8,629.6,471.3 M830.2,490.1
			c-2.6,0-4.6,2.1-4.6,4.6c0,2.6,2.1,4.6,4.6,4.6c2.5,0,4.6-2.1,4.6-4.6C834.8,492.2,832.8,490.1,830.2,490.1 M372.8,490.1
			c-2.6,0-4.6,2.1-4.6,4.6c0,2.6,2.1,4.6,4.6,4.6c2.6,0,4.6-2.1,4.6-4.6C377.4,492.2,375.4,490.1,372.8,490.1 M836.1,471.3
			c0-8.5-6.9-15.4-15.4-15.4h-23.1v8.8h23.1c3.6,0,6.6,3,6.6,6.6 M593.4,452.8c2.5,0,4.6-2.1,4.6-4.6c0-2.5-2.1-4.6-4.6-4.6
			c-2.6,0-4.6,2.1-4.6,4.6C588.8,450.7,590.8,452.8,593.4,452.8 M581,452.8c2.6,0,4.6-2.1,4.6-4.6c0-2.5-2.1-4.6-4.6-4.6
			c-2.5,0-4.6,2.1-4.6,4.6C576.4,450.7,578.4,452.8,581,452.8 M360.4,490.1c-2.5,0-4.6,2.1-4.6,4.6c0,2.6,2.1,4.6,4.6,4.6
			c2.6,0,4.6-2.1,4.6-4.6C365,492.2,363,490.1,360.4,490.1"/>
	</g>
	<g>
		<defs>
			<path id="SVGID_1_" d="M100.7,486.8v23.1c5.6,38.4,38.4,67.9,78.2,68.3h1.7c43.7-0.5,79-36,79-79.9c0-44.1-35.8-79.8-79.8-79.8
				C139.6,418.5,106.3,448.2,100.7,486.8"/>
		</defs>
		<clipPath id="SVGID_2_">
			<use xlink:href="#SVGID_1_"  style="overflow:visible;"/>
		</clipPath>
		
			<radialGradient id="SVGID_3_" cx="178.894" cy="939.3536" r="5.2988" gradientTransform="matrix(17.1874 0 0 17.4402 -2907.4705 -15953.998)" gradientUnits="userSpaceOnUse">
			<stop  offset="0" style="stop-color:#FFFFFF"/>
			<stop  offset="0.1965" style="stop-color:#C5DCEC"/>
			<stop  offset="0.4893" style="stop-color:#73ABD2"/>
			<stop  offset="0.7302" style="stop-color:#3887BF"/>
			<stop  offset="0.9067" style="stop-color:#1370B3"/>
			<stop  offset="1" style="stop-color:#0568AF"/>
		</radialGradient>
		<rect x="100.7" y="418.5" class="st1" width="158.9" height="159.7"/>
	</g>
	<g>
		<path class="st2" d="M234.7,447c0,0-4-1.7-11.6-3.7c9.2,14.2,12.4,27,12.4,27l-0.7,3.2c-32.5,2.8-40.2,5.3-40.2,5.3l-0.2-1.1
			c-4.2-19.3-11.1-36.7-11.1-36.7c-10.4,0.9-23.7,4.6-23.7,4.6c5.3,57.5,21.4,107.5,21.4,107.5c9.3-1.3,24.1-4.7,24.1-4.7
			c-0.9-18.1-5.3-43.7-5.3-43.7s13.3-2.4,39.6-9.4l1.8,2c1.9,11.9,1.1,24.1-0.1,32.9c4.8-3.7,8.9-7.4,8.9-7.4
			C256.8,479.2,234.7,447,234.7,447"/>
		<path class="st3" d="M220.6,439.4c0.9,1.3,1.8,2.6,2.6,3.9c7.6,2,11.6,3.7,11.6,3.7s22.1,32.2,15.5,75.8c0,0-4.1,3.7-8.9,7.4
			c-0.2,1.3-0.4,2.6-0.5,3.8c3.8-2.8,7.4-5.9,10.8-9.5c0,0,5.1-18-0.9-44.4c-4.9-21.7-13.8-33-16.1-35.8
			C234.5,444.3,229.7,441.6,220.6,439.4"/>
		<path class="st3" d="M200,504.7c0,0,4.4,25.6,5.3,43.7c0,0-14.7,3.5-24.1,4.7c0,0-16.2-50-21.4-107.5c0,0,13.4-3.7,23.7-4.6
			c0,0,6.9,17.4,11.1,36.7l0.2,1.1c0,0,7.7-2.5,40.2-5.3l0.7-3.2c-19.9,0.8-39.1,4.1-39.1,4.1c-3.2-14.9-8.5-29.7-11.3-37.1
			c-8.6,0.8-18.3,2.5-29,5.6c0,0,3.6,53.1,23.1,113.7c0,0,12.8-1,28.7-6.2c-0.3-13.8-4.7-42.6-4.7-42.6
			c24.3-5.7,38.1-10.4,38.1-10.4l-1.8-2C213.3,502.3,200,504.7,200,504.7"/>
	</g>
</g>
</svg>
