<?xml version="1.0" encoding="UTF-8"?><svg id="uuid-4e819f86-4c24-4f64-93d6-3054f3545168" xmlns="http://www.w3.org/2000/svg" viewBox="0 0 130.24 53.85">
<title>Dino Polska logo - Brandlogos.net</title><path d="M43.41.19c3.84,0,6.97,2.97,6.97,6.61s-3.13,6.61-6.97,6.61c-3.84,0-6.97-2.97-6.97-6.61S39.57.19,43.41.19ZM64.68,14.75c.22-.24.46-.46.71-.65h0c1.93-1.48,4.24-2.09,6.71-2.09,2.99,0,6.04.69,7.85,3.14,1.38,1.85,1.73,4.33,1.73,6.55v18.08h-13.95v-15.68c0-.22-.04-.47-.19-.64-.24-.26-.74-.3-1.08-.3s-.84.04-1.08.3c-.15.17-.19.42-.19.64v15.68h-13.95V12.56h13.44v2.2h0ZM35.36,12.75c.52,0,.54,0,.79,0h.28s.18.21.18.21c1.19,1.35,3.03,2.05,4.87,2.05s3.68-.7,4.87-2.05l.18-.21h.28c.23,0,.88,0,1.04,0h.61s0,27.03,0,27.03h-13.95V12.75h.62c.08,0,.17,0,.26,0ZM17.94,37.53c-.32.3-.65.58-.99.82-1.86,1.3-3.95,1.97-6.26,1.97-3.38,0-6.24-1.13-8.12-3.86-2.04-2.97-2.58-6.82-2.58-10.29s.65-7.48,3.03-10.39c2.27-2.77,5.59-3.77,9.2-3.77,1.57,0,3.06.37,4.46,1.04.25.12.49.26.73.41V0h13.95v39.77h-13.44v-2.24ZM15.7,23.44c-1.68,0-2.82,1.51-2.82,3.01s1.13,3.01,2.82,3.01,2.82-1.51,2.82-3.01-1.13-3.01-2.82-3.01ZM98.94,12.02c8.06,0,14.62,6.23,14.62,13.87s-6.57,13.87-14.62,13.87c-8.05,0-14.62-6.23-14.62-13.87s6.57-13.87,14.62-13.87ZM98.94,22.86c-1.76,0-3.19,1.36-3.19,3.03s1.43,3.02,3.19,3.02,3.19-1.36,3.19-3.02-1.43-3.03-3.19-3.03Z" style="fill:#fff; fill-rule:evenodd;"/><path d="M43.41.77c3.5,0,6.36,2.71,6.36,6.03s-2.86,6.03-6.36,6.03-6.36-2.71-6.36-6.03,2.86-6.03,6.36-6.03ZM41.62,2.08c-.15-.27-.77-.11-1.23.19-.46.3-.83.78-.58,1.03.24.25.57-.32,1.02-.61.46-.3.94-.34.79-.61Z" style="fill:#009a42; fill-rule:evenodd;"/><path d="M30.77,39.19h-12.22v-3.16c-.74.84-1.4,1.45-1.96,1.85-1.77,1.24-3.73,1.85-5.89,1.85-3.42,0-5.95-1.2-7.6-3.6-1.65-2.4-2.48-5.72-2.48-9.97s.97-7.67,2.9-10.03c1.94-2.36,4.84-3.54,8.71-3.54,1.42,0,2.82.33,4.19.98.46.22,1,.56,1.62,1.04V.58h12.73v38.61ZM98.94,12.6c7.72,0,14.01,5.97,14.01,13.28s-6.29,13.28-14.01,13.28-14.01-5.97-14.01-13.28,6.29-13.28,14.01-13.28ZM98.94,22.28c2.1,0,3.8,1.62,3.8,3.61s-1.71,3.61-3.8,3.61-3.8-1.62-3.8-3.61c0-1.99,1.71-3.61,3.8-3.61ZM81.07,39.19h-12.73v-15.1c0-1.02-.63-1.53-1.88-1.53s-1.88.51-1.88,1.53v15.1h-12.73V13.14h12.22v3.32c.63-.87,1.2-1.51,1.71-1.91,1.71-1.31,3.82-1.96,6.32-1.96,3.47,0,5.92.96,7.35,2.89,1.08,1.45,1.62,3.52,1.62,6.21v17.5h0ZM47.83,39.19h-12.73V13.33c.18,0,.19,0,.26,0,.17,0,.69,0,.77,0,1.2,1.37,3.15,2.26,5.34,2.26s4.14-.89,5.34-2.26c.08,0,.98,0,1.03,0v25.86ZM15.7,22.86c1.89,0,3.43,1.62,3.43,3.6s-1.54,3.6-3.43,3.6c-1.89,0-3.43-1.62-3.43-3.6s1.54-3.6,3.43-3.6Z" style="fill:#e30613; fill-rule:evenodd;"/><path d="M53.12,46.46c.41-1.06.65-1.69.75-1.91.09-.22.24-.33.44-.33.1,0,.22.04.36.12.14.08.27.16.4.23v.59s.24-.13.58-.31c.35-.18.63-.28.85-.28.31,0,.57.16.78.47.21.31.32.68.32,1.12,0,.3-.12.74-.37,1.3-.24.56-.53,1.22-.86,1.97-.22.74-.37,1.22-.44,1.42-.07.2-.26.3-.56.3-.28,0-.5-.08-.66-.23-.16-.16-.25-.35-.25-.57s.18-.77.53-1.61c.35-.84.71-1.7,1.08-2.57,0-.12-.07-.18-.22-.18-.2,0-.47.11-.81.33-.34.22-.56.48-.67.78-.11.3-.27.7-.47,1.2-.21.5-.4.98-.58,1.43-.12.4-.22.71-.3.92-.08.22-.2.32-.37.32s-.4-.11-.68-.32c-.29-.21-.43-.41-.43-.61,0-.22.25-.83.75-1.84.5-1.01.78-1.59.84-1.74ZM62.24,44.97c.12-.07.25-.23.4-.47.15-.24.29-.35.41-.32.28.07.49.17.65.31.15.13.23.33.23.59-.3.58-.61,1.21-.92,1.89-.31.68-.53,1.28-.64,1.79-.11.51-.2,1.04-.25,1.6-.05.56-.25.83-.59.83-.4,0-.67-.07-.81-.2-.14-.14-.22-.26-.22-.38v-.24c0-.07,0-.13-.01-.18-.13.06-.38.22-.77.47-.39.25-.72.38-1,.38-.35,0-.63-.17-.82-.52-.19-.35-.29-.77-.29-1.27,0-.55.16-1.18.49-1.88.32-.7.8-1.27,1.44-1.7.63-.43,1.12-.74,1.46-.94.34-.2.58-.3.72-.3.06,0,.15.05.27.16.12.1.21.24.27.4ZM61.04,47.78c.09-.24.26-.61.49-1.11.24-.5.34-.76.3-.77-.75.29-1.39.8-1.91,1.54-.52.74-.78,1.32-.78,1.76,0,.18.06.28.18.28.05,0,.16-.05.34-.14.18-.1.43-.24.76-.42.18-.15.38-.53.62-1.13ZM65.85,45.56c.05-.24.11-.48.19-.72.08-.24.2-.36.37-.36.08,0,.16.03.23.1.2.15.38.29.53.42.15.13.22.28.22.44,0,.05-.01.13-.04.23-.03.11-.1.35-.21.71-.11.37-.32.94-.63,1.71-.31.77-.68,1.6-1.09,2.47-.41.88-.78,1.56-1.11,2.06-.32.5-.57.82-.74.98-.17.16-.32.24-.44.24-.26,0-.55-.06-.88-.17-.33-.11-.49-.24-.49-.4,0-.11.17-.32.5-.62.33-.3.59-.59.78-.86.19-.28.48-.82.89-1.63.41-.81.73-1.54.98-2.21.25-.66.46-1.21.65-1.63.18-.42.28-.68.31-.78ZM66.75,42.95c0-.12.08-.38.25-.79.17-.4.35-.61.54-.61.12,0,.32.1.62.31.3.2.44.36.44.47,0,.1-.06.23-.19.38-.13.15-.24.35-.35.6-.11.25-.28.39-.51.42-.18.02-.36-.06-.54-.25-.18-.19-.27-.37-.27-.54ZM70.32,42.57c.05-.21.11-.41.17-.62s.18-.31.36-.31c.15,0,.35.09.6.26.24.18.37.38.37.61,0,.22-.09.56-.27,1.04-.18.48-.37.99-.58,1.54.08-.03.26-.13.54-.28.27-.16.52-.23.74-.23.25,0,.51.18.77.55.26.36.39.81.39,1.34-.06.47-.21.95-.46,1.42-.24.48-.61.97-1.1,1.48-.49.51-.91.92-1.25,1.22-.35.31-.62.46-.82.46-.12,0-.3-.12-.54-.35-.24-.24-.42-.4-.54-.49-.1.23-.2.42-.28.56-.09.14-.18.22-.28.22-.09,0-.29-.1-.6-.31-.3-.2-.46-.41-.46-.61,0-.13.23-.65.68-1.58.45-.92.8-1.64,1.05-2.15.25-.51.44-.95.58-1.31.13-.36.31-.81.53-1.36.22-.54.36-.92.42-1.12ZM71.6,46.05c-.65.18-1.05.35-1.19.52-.18.66-.62,1.58-1.34,2.74.05.05.12.07.22.07.34,0,.81-.31,1.42-.94.61-.62.97-1.11,1.1-1.45.12-.34.18-.53.18-.58,0-.12-.03-.22-.09-.29-.06-.08-.16-.1-.29-.07ZM75.89,44.42c.3-.63.6-1.27.9-1.91.3-.54.59-.79.89-.77.14,0,.3.09.47.27.17.18.27.35.29.5,0,0-.19.38-.56,1.11-.37.73-.73,1.48-1.08,2.24-.35.76-.68,1.64-.97,2.62-.3.98-.47,1.54-.51,1.69-.04.15-.07.31-.11.5-.07.22-.17.34-.32.34-.07,0-.16-.04-.28-.11-.3-.11-.52-.21-.67-.29-.15-.08-.23-.29-.23-.62,0-.18.16-.7.49-1.54.33-.84.64-1.63.96-2.36.31-.73.56-1.29.73-1.66ZM80.13,42.94c0-.12.08-.38.25-.79.17-.4.35-.61.54-.61.11,0,.3.11.57.32.27.22.41.36.41.44,0,.1-.02.19-.06.29-.04.1-.1.19-.17.27-.07.08-.16.25-.27.49-.11.24-.24.37-.38.37-.2,0-.4-.09-.6-.28-.19-.18-.29-.36-.29-.52ZM78.69,46.42c.27-.5.51-.95.73-1.33.22-.38.37-.58.46-.58.21,0,.41.08.59.25.18.16.27.37.27.61,0,.05-.03.14-.08.26-.05.13-.23.44-.52.95-.29.5-.59,1.16-.9,1.97-.31.81-.61,1.61-.89,2.4-.07.02-.12.04-.16.04-.06,0-.1-.01-.13-.03-.03-.02-.13-.11-.31-.26-.21,0-.38-.05-.51-.15-.13-.1-.2-.19-.2-.28,0-.19.17-.69.51-1.49.34-.8.72-1.59,1.15-2.35ZM82.46,45.02c0-.36.17-.59.51-.7.34-.11,1.29-.16,2.85-.16.16,0,.29.03.4.1.11.06.17.14.2.22.03.08.09.22.21.41.11.19.17.34.17.44,0,.05-.01.1-.04.17l-3.47,3.71s0,.04,0,.06c.01.02.04.02.1.02.08,0,.25-.02.49-.06.25-.04.45-.08.63-.11.17-.03.37-.05.6-.05.21,0,.41.09.58.27.18.18.27.37.27.55,0,.15-.07.27-.2.35-.14.08-.33.12-.6.12h-.58c-.3,0-.63.02-.97.05-.34.04-.7.1-1.08.18-.38.08-.65.18-.82.28-.17.1-.28.16-.34.16-.09,0-.2-.1-.32-.31-.12-.2-.21-.37-.27-.5-.06-.13-.09-.24-.09-.32,0-.08.04-.19.12-.34.08-.15.33-.43.75-.83.42-.41,1.11-1.06,2.08-1.95.96-.89,1.43-1.35,1.39-1.39-.04-.04-.37.01-.99.16-.62.14-.95.22-.99.22-.19,0-.33-.05-.44-.16-.11-.1-.16-.3-.16-.59ZM87.63,46.5c.43-.63.95-1.17,1.56-1.6.61-.44,1.22-.65,1.85-.65.41,0,.76.14,1.03.41.27.27.41.62.41,1.03,0,.78-.39,1.42-1.16,1.94-.78.52-1.43.77-1.96.77-.12,0-.23-.05-.35-.15-.11-.1-.24-.21-.37-.34-.11.12-.18.23-.21.32-.03.1-.04.3-.04.62,0,.2.04.35.13.44.08.1.25.14.49.14.16,0,.47-.08.94-.23.46-.15.73-.23.81-.23.09,0,.18.05.25.14.08.1.11.2.11.31,0,.38-.35.73-1.05,1.04-.7.31-1.22.46-1.54.46-.54,0-.97-.19-1.28-.57-.31-.38-.47-.82-.47-1.33,0-.35.07-.75.2-1.19.14-.44.36-.89.67-1.35ZM90.86,45.36c-.43.09-.84.35-1.22.79-.38.44-.64.8-.75,1.09.03.06.11.08.22.08.29,0,.64-.16,1.07-.47.43-.31.7-.66.83-1.06.02-.08.03-.14.03-.18,0-.14-.06-.22-.16-.25ZM94.51,45.56c.05-.24.11-.48.19-.72.08-.24.2-.36.37-.36.08,0,.16.03.23.1.2.15.38.29.53.42.15.13.22.28.22.44,0,.05-.01.13-.04.23-.03.11-.1.35-.21.71-.11.37-.32.94-.63,1.71-.31.77-.68,1.6-1.09,2.47-.41.88-.78,1.56-1.11,2.06-.33.5-.57.82-.74.98-.17.16-.32.24-.44.24-.26,0-.55-.06-.88-.17-.33-.11-.49-.24-.49-.4,0-.11.17-.32.5-.62.33-.3.59-.59.78-.86.19-.28.48-.82.89-1.63.4-.81.73-1.54.98-2.21.25-.66.46-1.21.65-1.63.18-.42.28-.68.31-.78ZM95.41,42.95c0-.12.08-.38.25-.79.17-.4.35-.61.54-.61.12,0,.33.1.62.31.3.2.44.36.44.47,0,.1-.06.23-.19.38-.13.15-.24.35-.35.6-.11.25-.28.39-.51.42-.18.02-.36-.06-.54-.25-.18-.19-.27-.37-.27-.54ZM101.07,44.33c.4-.55.78-1.01,1.13-1.38.35-.37.76-.68,1.23-.94.47-.26.99-.38,1.54-.38.51,0,.86.12,1.04.37.18.24.27.55.27.92,0,.49-.12.93-.36,1.32-.24.39-.59.59-1.06.59-.24,0-.42-.03-.54-.1-.12-.06-.18-.18-.18-.34,0-.09.08-.27.25-.54.17-.27.25-.56.25-.86-.04-.02-.08-.04-.11-.04-.2,0-.45.17-.73.52-.29.35-.6.75-.94,1.2-.34.45-.66,1.11-.96,1.98-.3.87-.45,1.61-.45,2.24,0,.32.05.52.15.59.1.07.23.11.38.11.29,0,.64-.1,1.07-.29.43-.19.78-.36,1.07-.49.12,0,.2.03.25.08.05.06.08.21.08.46,0,.48-.3.88-.89,1.2-.59.32-1.26.48-2,.48-.62,0-1.11-.22-1.47-.67-.35-.44-.53-.99-.53-1.64s.15-1.39.45-2.24c.3-.86.66-1.57,1.08-2.15ZM108.38,42.94c0-.12.08-.38.25-.79.17-.4.35-.61.54-.61.11,0,.3.11.57.32.27.22.4.36.4.44,0,.1-.02.19-.06.29-.04.1-.1.19-.17.27s-.16.25-.27.49c-.11.24-.24.37-.38.37-.2,0-.4-.09-.6-.28-.19-.18-.29-.36-.29-.52ZM106.93,46.42c.27-.5.51-.95.73-1.33.21-.38.37-.58.46-.58.21,0,.41.08.59.25.18.16.27.37.27.61,0,.05-.03.14-.08.26-.06.13-.23.44-.52.95-.29.5-.59,1.16-.9,1.97-.31.81-.61,1.61-.89,2.4-.07.02-.12.04-.16.04-.06,0-.1-.01-.13-.03-.03-.02-.13-.11-.31-.26-.21,0-.38-.05-.51-.15-.13-.1-.2-.19-.2-.28,0-.19.17-.69.51-1.49.34-.8.72-1.59,1.15-2.35ZM109.93,46.5c.43-.63.95-1.17,1.56-1.6.61-.44,1.22-.65,1.85-.65.41,0,.76.14,1.03.41.27.27.41.62.41,1.03,0,.78-.39,1.42-1.17,1.94-.78.52-1.43.77-1.96.77-.12,0-.23-.05-.35-.15-.11-.1-.24-.21-.37-.34-.11.12-.18.23-.21.32-.03.1-.04.3-.04.62,0,.2.04.35.13.44.08.1.25.14.49.14.16,0,.47-.08.94-.23.46-.15.74-.23.81-.23.09,0,.18.05.25.14.08.1.11.2.11.31,0,.38-.35.73-1.05,1.04-.7.31-1.21.46-1.54.46-.54,0-.97-.19-1.28-.57-.31-.38-.47-.82-.47-1.33,0-.35.07-.75.2-1.19.14-.44.36-.89.67-1.35ZM113.16,45.36c-.43.09-.84.35-1.22.79-.38.44-.64.8-.75,1.09.03.06.11.08.21.08.29,0,.64-.16,1.07-.47.43-.31.7-.66.83-1.06.02-.08.03-.14.03-.18,0-.14-.06-.22-.17-.25ZM117.43,42.57c.05-.21.11-.41.17-.62.06-.2.18-.31.36-.31.15,0,.35.09.6.26.25.18.37.38.37.61,0,.22-.09.56-.27,1.04-.18.48-.37.99-.58,1.54.09-.03.26-.13.54-.28.27-.16.52-.23.74-.23.25,0,.51.18.77.55.26.36.39.81.39,1.34-.06.47-.21.95-.46,1.42-.24.48-.61.97-1.1,1.48-.49.51-.91.92-1.25,1.22-.35.31-.62.46-.82.46-.12,0-.3-.12-.54-.35-.24-.24-.42-.4-.54-.49-.1.23-.2.42-.28.56-.09.14-.18.22-.29.22-.09,0-.29-.1-.59-.31-.3-.2-.46-.41-.46-.61,0-.13.23-.65.68-1.58.45-.92.8-1.64,1.05-2.15.25-.51.44-.95.58-1.31.13-.36.31-.81.52-1.36.22-.54.36-.92.42-1.12ZM118.71,46.05c-.65.18-1.05.35-1.19.52-.18.66-.62,1.58-1.34,2.74.05.05.12.07.21.07.34,0,.81-.31,1.42-.94.61-.62.97-1.11,1.1-1.45.12-.34.18-.53.18-.58,0-.12-.03-.22-.09-.29s-.16-.1-.29-.07ZM123.85,42.94c0-.12.08-.38.25-.79.17-.4.35-.61.55-.61.11,0,.3.11.57.32.27.22.4.36.4.44,0,.1-.02.19-.06.29-.04.1-.1.19-.17.27-.07.08-.16.25-.27.49-.11.24-.24.37-.38.37-.2,0-.4-.09-.6-.28-.19-.18-.29-.36-.29-.52ZM122.4,46.42c.27-.5.51-.95.73-1.33.21-.38.37-.58.46-.58.21,0,.41.08.59.25.18.16.27.37.27.61,0,.05-.03.14-.08.26-.06.13-.23.44-.52.95-.29.5-.59,1.16-.9,1.97-.31.81-.61,1.61-.89,2.4-.07.02-.12.04-.17.04-.06,0-.1-.01-.13-.03-.03-.02-.13-.11-.31-.26-.21,0-.38-.05-.51-.15-.13-.1-.2-.19-.2-.28,0-.19.17-.69.51-1.49.34-.8.72-1.59,1.15-2.35ZM125.4,46.5c.43-.63.95-1.17,1.56-1.6.61-.44,1.22-.65,1.85-.65.41,0,.75.14,1.02.41.27.27.4.62.4,1.03,0,.78-.39,1.42-1.16,1.94-.78.52-1.43.77-1.96.77-.12,0-.23-.05-.35-.15-.11-.1-.24-.21-.37-.34-.11.12-.18.23-.21.32-.03.1-.04.3-.04.62,0,.2.04.35.13.44.08.1.25.14.49.14.16,0,.47-.08.94-.23.46-.15.73-.23.81-.23.09,0,.18.05.25.14.08.1.11.2.11.31,0,.38-.35.73-1.05,1.04-.7.31-1.21.46-1.54.46-.54,0-.97-.19-1.28-.57-.31-.38-.47-.82-.47-1.33,0-.35.07-.75.2-1.19.14-.44.36-.89.67-1.35ZM128.63,45.36c-.43.09-.84.35-1.22.79-.38.44-.63.8-.75,1.09.03.06.11.08.21.08.29,0,.64-.16,1.07-.47.43-.31.7-.66.83-1.06.02-.08.03-.14.03-.18,0-.14-.06-.22-.16-.25Z" style="fill:#009a42;"/><path d="M84.33,42.95c0-.12.08-.38.25-.79.17-.4.35-.61.54-.61.11,0,.3.11.57.32.27.22.4.36.4.44,0,.1-.02.19-.06.29-.04.1-.1.19-.17.27-.07.08-.16.25-.27.49-.11.24-.24.37-.38.37-.2,0-.4-.09-.59-.28-.19-.18-.29-.36-.29-.52Z" style="fill:#009a42;"/></svg>