<?xml version="1.0" encoding="UTF-8" standalone="no"?>
<!-- Created with Inkscape (http://www.inkscape.org/) -->

<svg
   xmlns:dc="http://purl.org/dc/elements/1.1/"
   xmlns:cc="http://creativecommons.org/ns#"
   xmlns:rdf="http://www.w3.org/1999/02/22-rdf-syntax-ns#"
   xmlns:svg="http://www.w3.org/2000/svg"
   xmlns="http://www.w3.org/2000/svg"
   version="1.1"
   width="418.019710335"
   height="239.223169453" viewBox="0 0 715.74799 409.60629"
   id="svg7494">
  <defs
     id="defs7496" />
  <metadata
     id="metadata7499">
    <rdf:RDF>
      <cc:Work
         rdf:about="">
        <dc:format>image/svg+xml</dc:format>
        <dc:type
           rdf:resource="http://purl.org/dc/dcmitype/StillImage" />
        <dc:title></dc:title>
      </cc:Work>
    </rdf:RDF>
  </metadata>
  <g
     transform="translate(-14.855444,-312.72552)"
     id="layer1">
    <g
       transform="matrix(4.2581159,0,0,4.2581159,-2155.9946,-2484.5954)"
       id="g7525">
      <path
         d="m 537.06852,744.43508 c 0.35875,0 0.7075,0.0675 1.05375,0.18625 l 0.175,-0.18625 1.84875,0 0,3.74512 0.57125,0 -0.57125,2.10238 -2.055,0 0,-1.6 -0.61,1.61625 c -0.1325,0.0188 -0.28,0.0288 -0.41875,0.0288 -1.62625,0 -2.945,-1.32 -2.945,-2.94625 0,-1.6275 1.325,-2.94625 2.95125,-2.94625 m 1.025,3.81375 -0.003,-1.07363 c 0,0 -0.13625,-0.7525 -0.8675,-0.7525 0,0 -0.91375,-0.045 -0.96,0.82238 0,0 -0.045,0.93512 0.84625,1.00375 l 0.98375,0 m -19.70125,0.45887 0,-0.56387 -0.005,-1.62 -0.56875,0 0.59375,-2.12238 2.1075,0 0,2.99488 c 0,0 -0.235,0.915 1.39375,0.79137 l 0,-3.78625 2.0725,0 0,3.78625 0.5925,0 -0.6175,2.1575 -2.0725,0 0,-1.56512 -0.6775,1.54125 c 0,0 -0.275,0.0301 -0.655,0.0175 l -0.45125,0.004 c -0.985,0.002 -1.7125,-0.73 -1.7125,-1.635 m 23.20875,-4.21125 2.02625,0 0,3.7725 0.6275,0 -0.6275,2.09487 -2.05,0 0,-3.74862 -0.51375,0 0.5375,-2.11875 m 0.3525,-2.35638 2.0075,0 -0.5075,1.855 -1.9575,0 0.4575,-1.855 m 3.4575,1.52 2.07625,-0.47125 0,1.29125 0.97875,0 -0.5325,2.11513 -0.44625,0 0,3.73237 -2.1025,0 0,-3.73237 -0.715,0 0.58375,-2.08888 0.13125,0 0.0263,-0.84625 m -20.7725,0.79875 2.33125,0 0.73125,2.80875 0.935,-2.8325 1.69,0 0.845,2.81 0.845,-2.78625 2.285,0 -1.92,5.86875 -2.14625,0 -0.79875,-2.4675 -0.685,2.44263 -2.285,0 -1.8275,-5.84388 m -13.34875,-2.23482 2.30625,0 0,3.17 1.6525,-3.14513 2.5775,0 -2.05875,3.91013 2.25625,4.16862 -2.67625,0 -1.75125,-3.31737 0,3.2925 -2.30625,0 0,-5.79638 -0.6425,0 0.6425,-2.28237"
         id="path7415"
         style="fill:#000000;fill-opacity:1;fill-rule:evenodd;stroke:none" />
      <path
         d="m 592.02964,748.65133 0,-0.56375 -0.006,-1.62 -0.5675,0 0.5925,-2.1225 2.10875,0 0,2.995 c 0,0 -0.23637,0.915 1.39375,0.79137 l 0,-3.78637 2.07,0 0,3.78637 0.59363,0 -0.61613,2.15863 -2.07375,0 0,-1.56625 -0.67625,1.5425 c 0,0 -0.27625,0.0289 -0.655,0.0163 l -0.4525,0.005 c -0.985,10e-4 -1.71137,-0.73125 -1.71137,-1.63625 m 7.14262,-4.26238 2.0525,0 0,1.52863 0.72363,-1.51125 1.07387,0 c 0,0 1.39375,-0.0236 1.60625,1.49375 l 0.63858,-1.47613 1.15762,0 c 0,0 1.445,0.11738 1.5725,1.49363 l 0,2.33625 0.56875,0 -0.535,2.05262 -2.05,0 0,-3.19137 c 0,0 -0.0375,-0.645 -0.7475,-0.645 l -0.605,0 0,3.85262 -2.0875,0 0,-2.90512 c 0,0 0.0436,-0.9475 -0.59262,-0.9475 l -0.72363,0 0,3.85262 -2.07,0 0,-3.85262 -0.48,0 0.4975,-2.08113 m -11.9725,3.35113 c 0,0 0.3,1.255 3.3,0.4725 l -0.4275,1.88375 c 0,0 -2.3925,0.85762 -4.39,-0.73625 0,0 -2.0225,-2.18625 0.20625,-4.46625 0,0 1.8,-1.42613 3.72,-0.025 0,0 1.22625,0.97625 1.22625,2.87125 l -3.635,0 m -0.2575,-1.235 1.74,0 c 0,0 -0.085,-0.79 -0.87375,-0.79 0,0 -0.7375,-0.0186 -0.84,0.55375 l -0.0263,0.23625 m -5.13762,-4.36988 2.02887,0 0,6.13738 0.5525,0 -0.5525,2.055 -2.135,0 0,-6.13488 -0.44625,0 0.55238,-2.0575 m -6.92488,5.18238 c 0,-1.71625 1.39125,-3.10863 3.10625,-3.10863 1.7175,0 3.10875,1.39238 3.10875,3.10863 0,1.715 -1.39125,3.10637 -3.10875,3.10637 -1.715,0 -3.10625,-1.39137 -3.10625,-3.10637 m 2.03,0 c 0,-0.59625 0.4825,-1.07738 1.07625,-1.07738 0.59625,0 1.07875,0.48113 1.07875,1.07738 0,0.59375 -0.4825,1.07762 -1.07875,1.07762 -0.59375,0 -1.07625,-0.48387 -1.07625,-1.07762 m -5.8525,-2.92863 1.9775,0 0,0.63613 c 0,0 0.95125,-0.79988 1.81738,-0.63613 l -0.52488,2.22488 c 0,0 -1.2925,0.0462 -1.2925,1.28262 l 0,2.43113 -2.10875,0 0,-3.71375 -0.5525,0 0.68375,-2.22488 m -8.61375,3.4325 c 0,0 0.29875,1.255 3.3,0.47238 l -0.4275,1.88512 c 0,0 -2.39375,0.85738 -4.39,-0.73637 0,0 -2.0225,-2.1875 0.20625,-4.4675 0,0 1.8,-1.42625 3.72,-0.0263 0,0 1.22625,0.9775 1.22625,2.87262 l -3.635,0 m -0.25625,-1.23262 1.73875,0 c 0,0 -0.0862,-0.79 -0.87375,-0.79 0,0 -0.7375,-0.0199 -0.84,0.55125 l -0.025,0.23875 m -8.1625,-4.40875 2.2125,0 c 0,0 3.53125,-0.18 3.71125,3.15512 0,0 0.10375,2.27375 -2.0225,2.95863 0,0 -0.5825,0.2225 -1.535,0.2225 l 0,1.81125 -2.4425,0 0,-5.71125 -0.5325,0 0.60875,-2.43625 m 2.36625,2.38387 c 0,0 1.1225,-0.205 1.22625,0.84863 0,0 0.1625,0.9375 -1.22625,0.9375 l 0,-1.78613 m 10.84375,-0.90387 2.0775,-0.47125 0,1.29125 0.9775,0 -0.5325,2.11512 -0.445,0 0,3.73238 -2.10375,0 0,-3.73238 -0.715,0 0.58375,-2.08887 0.13125,0 0.0263,-0.84625"
         id="path7417"
         style="fill:#000000;fill-opacity:1;fill-rule:evenodd;stroke:none" />
      <path
         d="m 651.90115,744.38895 c 0.36112,0 0.70737,0.0661 1.05237,0.18625 l 0.175,-0.18625 1.85125,0 0,3.74375 0.57125,0 -0.57125,2.10363 -2.05625,0 0,-1.59988 -0.61,1.61488 c -0.13138,0.0212 -0.28,0.03 -0.4175,0.03 -1.62875,0 -2.94637,-1.31988 -2.94637,-2.94625 0,-1.6275 1.325,-2.94613 2.9515,-2.94613 m 1.02237,3.81863 0,-1.07875 c 0,0 -0.13625,-0.755 -0.86875,-0.755 0,0 -0.9125,-0.0424 -0.95625,0.8225 0,0 -0.0475,0.93637 0.84375,1.00625 l 0.98125,0.005 m 17.395,-1.51738 0.5625,-2.16012 2.0775,0 0,1.57625 0.69,-1.57625 1.1575,0 c 0,0 1.60013,-10e-4 1.60013,1.82 l 0,2.0825 0.561,0 -0.561,2.04125 -2.05138,0 0,-3.09113 c 0,0 -0.0363,-0.71887 -0.8275,-0.71262 l -0.56625,0 0,3.8 -2.13637,0 0,-3.76738 -0.52488,0 0.0187,-0.0125 m -37.1312,-0.0764 c 0.2075,-0.1375 1.02875,-0.0662 1.02875,-0.0662 0.46125,0.0514 0.8225,0.44375 0.8225,0.92 0,0.51 -0.4125,0.92625 -0.925,0.92625 -0.51125,0 -0.92625,-0.41625 -0.92625,-0.92625 l 0,-0.85375 m 0,3.685 0,1.99875 -2.1675,0 0,-5.68375 -0.57125,0 0.615,-2.22488 2.12375,0 0,1.35363 0.58375,-1.32863 c 0.1325,-0.0176 0.26375,-0.025 0.3975,-0.025 1.68,0 3.04,1.35863 3.04,3.03875 0,1.67488 -1.36,3.03488 -3.04,3.03488 -0.34375,0 -0.67138,-0.0588 -0.98125,-0.16375 m 27.25875,-5.72625 2.02875,0 0,3.7725 0.6275,0 -0.6275,2.09625 -2.05125,0 0,-3.74863 -0.515,0 0.5375,-2.12012 m 0.35387,-2.355 2.00725,0 -0.50862,1.855 -1.9575,0 0.45888,-1.855 m -15.76138,2.1925 1.9775,0 0,0.63637 c 0,0 0.95,-0.79887 1.81875,-0.63637 l -0.5275,2.225 c 0,0 -1.29125,0.0462 -1.29125,1.2825 l 0,2.43 -2.11,0 0,-3.7125 -0.55125,0 0.68375,-2.225 m -18.51625,0 1.97488,0 0,0.63637 c 0,0 0.95262,-0.79887 1.81887,-0.63637 l -0.52375,2.225 c 0,0 -1.29512,0.0462 -1.29512,1.2825 l 0,2.43 -2.10613,0 0,-3.7125 -0.5525,0 0.68375,-2.225 m 11.2475,2.925 c 0,-1.7175 1.3925,-3.1075 3.10875,-3.1075 1.71625,0 3.1075,1.39 3.1075,3.1075 0,1.71512 -1.39125,3.10762 -3.1075,3.10762 -1.71625,0 -3.10875,-1.3925 -3.10875,-3.10762 m 2.02875,0 c 0,-0.59625 0.48375,-1.07863 1.08,-1.07863 0.595,0 1.07875,0.48238 1.07875,1.07863 0,0.595 -0.48375,1.0775 -1.07875,1.0775 -0.59625,0 -1.08,-0.4825 -1.08,-1.0775 m 23.73113,0.0763 c 0,-1.71625 1.38887,-3.10738 3.10512,-3.10738 1.71625,0 3.10875,1.39113 3.10875,3.10738 0,1.71625 -1.3925,3.1075 -3.10875,3.1075 -1.71625,0 -3.10512,-1.39125 -3.10512,-3.1075 m 2.02887,0 c 0,-0.59625 0.48113,-1.0775 1.07625,-1.0775 0.59625,0 1.07875,0.48125 1.07875,1.0775 0,0.595 -0.4825,1.07887 -1.07875,1.07887 -0.59512,0 -1.07625,-0.48387 -1.07625,-1.07887 m -46.355,0.085 c 0,-1.71625 1.39125,-3.10738 3.10763,-3.10738 1.71612,0 3.10862,1.39113 3.10862,3.10738 0,1.715 -1.3925,3.10637 -3.10862,3.10637 -1.71638,0 -3.10763,-1.39137 -3.10763,-3.10637 m 2.02875,0 c 0,-0.595 0.48375,-1.07875 1.07888,-1.07875 0.59612,0 1.07737,0.48375 1.07737,1.07875 0,0.595 -0.48125,1.0775 -1.07737,1.0775 -0.59513,0 -1.07888,-0.4825 -1.07888,-1.0775 m -4.42875,-3.0575 c 0.005,0 0.8075,0.25375 1.0375,0.57375 l 1.11863,-2.42125 -1.87363,-0.70875 -0.2,0.21875 c -0.1975,-0.0225 -0.375,-0.0337 -0.55625,-0.0337 -2.2825,0 -4.13125,1.84875 -4.13125,4.13012 0,2.27988 1.84875,4.12988 4.13125,4.12988 1.02488,0 1.96238,-0.37375 2.68625,-0.9925 l -1.085,-2.1075 c 0,0 -0.5925,0.42387 -0.76375,0.53125 -0.24125,0.1225 -0.52,0.19137 -0.81,0.19137 -0.98512,0 -1.7825,-0.79762 -1.7825,-1.78 0,-0.98375 0.79738,-1.78125 1.7825,-1.78125 l 0.44625,0.0499 m 39.7675,-0.77875 2.0775,-0.47125 0,1.29125 0.9775,0 -0.53,2.11513 -0.4475,0 0,3.73237 -2.10125,0 0,-3.73237 -0.71487,0 0.57987,-2.08888 0.135,0 0.0238,-0.84625"
         id="path7419"
         style="fill:#000000;fill-opacity:1;fill-rule:evenodd;stroke:none" />
      <path
         d="m 633.67852,732.73633 c 0,0 -0.78625,0.135 -1.1225,0.81012 0,0 -0.20375,0.50488 -0.20375,0.77863 l 1.32625,0 0,-1.58875 m 28.3475,1.5975 0,-4.4725 -2.65362,2.15375 c 0,0 0.63862,0.36137 0.66112,0.74512 l 0,1.57363 -1.545,-0.009 0,-4.47363 -2.65612,2.15488 c 0,0 0.64112,0.3625 0.66112,0.74375 l 0,1.575 -1.77,-0.007 0,-4.4725 -2.65375,2.15375 c 0,0 0.6375,0.3625 0.65888,0.74387 l 0,1.57488 -4.52888,0.007 0,-4.47363 -2.65625,2.15488 c 0,0 0.64,0.3625 0.66125,0.74375 l 0,1.575 -1.36375,0 0,-4.47363 -2.65375,2.15488 c 0,0 0.63625,0.3625 0.65875,0.74375 l 0,1.575 -1.365,0 0,-4.47363 -2.65375,2.15488 c 0,0 0.6375,0.3625 0.65875,0.74375 l 0,1.575 -3.78625,0 -0.0212,-4.8625 c 0,0 -1.41125,0.89 -2.36625,1.29375 0,0 -2.36875,0.75762 -2.9225,2.60637 0,0 -0.24875,0.98863 -0.4,1.93738 0,0 -0.15375,0.695 -0.3325,0.95137 l 32.37875,0 -0.01,-1.91762 m 5.76125,-7.69375 0,1.01125 -1.18625,0 c 0,0 -0.615,0.035 -0.615,0.48625 0,0 -0.1075,0.65625 0.5925,0.65625 l 1.19613,0 0,0.9375 -3.49113,0 0,-0.905 0.68125,0 c 0,0 -0.195,-0.57113 0.01,-1.14125 0,0 0.42988,-1.045 1.485,-1.045 l 1.3275,0 m -0.62,6.09625 c 0,0 -0.78375,0.135 -1.12125,0.81012 0,0 -0.2025,0.50488 -0.2025,0.77863 l 1.32375,0 0,-1.58875 m 7.84125,0.25125 c 0,0 -0.77612,-0.11625 -1.1125,0.55887 0,0 -0.2025,0.50488 -0.2025,0.77863 l 1.3225,0 -0.007,-1.3375 m -4.62375,1.33887 -1.16,-10e-4 -0.0212,-4.8625 c 0,0 -1.41125,0.89 -2.36637,1.29375 0,0 -2.36738,0.75763 -2.92238,2.60638 0,0 -0.24875,0.98862 -0.4,1.93737 0,0 -0.15375,0.695 -0.33125,0.95138 l 4.025,0 0.0175,1.61362 c 0,0.72638 -0.535,1.1175 -0.535,1.1175 -0.535,0.615 -1.80387,0.38263 -1.80387,0.38263 0.92512,1.15625 2.33887,0.99612 2.33887,0.99612 1.995,-0.30862 1.9625,-2.49625 1.9625,-2.49625 l 0,-1.61362 7.88375,0 0,-2.11638 -0.01,-1.57125 0,-2.30625 c -0.0762,0 -3.3375,0.965 -3.3375,0.965 -1.18625,0.42375 -1.745,1.62125 -1.745,1.62125 -0.0888,0.16138 -0.16125,0.335 -0.21762,0.51888 0,0 -0.10488,0.41862 -0.21988,0.97237 l -1.1575,-0.009 m -37.03375,-6.01125 c 0,-0.48262 0.39363,-0.875 0.87625,-0.875 0.48375,0 0.8775,0.39238 0.8775,0.875 0,0.48488 -0.39375,0.8775 -0.8775,0.8775 -0.48262,0 -0.87625,-0.39262 -0.87625,-0.8775 m -2.7,-0.0175 c 0,-0.48387 0.3925,-0.87512 0.87625,-0.87512 0.48375,0 0.87375,0.39125 0.87375,0.87512 0,0.48363 -0.39,0.87625 -0.87375,0.87625 -0.48375,0 -0.87625,-0.39262 -0.87625,-0.87625"
         id="path7421"
         style="fill:#000000;fill-opacity:1;fill-rule:evenodd;stroke:none" />
      <path
         d="m 613.20227,738.52758 c 0,-0.47988 0.39363,-0.87363 0.87625,-0.87363 0.48375,0 0.87625,0.39375 0.87625,0.87363 0,0.48637 -0.3925,0.8775 -0.87625,0.8775 -0.48262,0 -0.87625,-0.39113 -0.87625,-0.8775 m -5.87375,-10.18 c 0,-0.48613 0.3925,-0.87613 0.87625,-0.87613 0.48375,0 0.87625,0.39 0.87625,0.87613 0,0.48387 -0.3925,0.875 -0.87625,0.875 -0.48375,0 -0.87625,-0.39113 -0.87625,-0.875 m -2.7,-0.02 c 0,-0.48238 0.3925,-0.87488 0.87625,-0.87488 0.48375,0 0.87625,0.3925 0.87625,0.87488 0,0.485 -0.3925,0.87625 -0.87625,0.87625 -0.48375,0 -0.87625,-0.39125 -0.87625,-0.87625 m 19.42375,-1.2975 0,9.22137 1.84,0 0,-5.99387 c 0,0 -0.065,-0.9725 0.76237,-1.16238 l -2.60237,-2.06512 m -20.08875,3.015 -2.6675,2.16125 c 0,0 0.66625,0.69625 0.66625,1.045 0,0.34887 0,0 0,0 l 0,4.16137 c 0,0 -0.1,1.55238 -1.81,1.52125 0,0 1.0775,1.17238 2.79237,0.41113 0,0 0.82888,-0.21738 1.01888,-1.71125 l 0,-1.38238 19.075,0 0,-9.12637 -2.73138,2.19125 c 0,0 0.79263,0.52875 0.79263,0.94125 l 0,4.0675 -2.565,0 0,-4.2475 -2.35125,1.90625 c 0,0 0.505,0.44387 0.505,0.82375 l 0,1.5175 -7.3025,0 0,-4.21625 -2.40625,1.9975 c 0,0 0.44362,0.28875 0.475,0.89262 l 0,1.32613 -3.49125,0 0,-4.28 m -4.4775,-0.56863 c 0,0 -2.0325,0.85488 -2.6675,0.88738 0,0 -1.99875,0.58625 -2.6025,3.23637 0,0 -0.38125,2.19238 -0.63388,2.65125 l 3.93388,0 c 0,0 0.28625,1.95363 -1.0775,2.36613 0,0 -0.85,0.2525 -1.4575,-0.15988 0,0 0.825,1.77613 3.39625,0.6025 0,0 1.10875,-0.16012 1.10875,-2.80875 l 0,-6.775 m -1.97,3.14238 c 0,0 -1.1725,-0.0137 -1.395,1.70625 l 1.395,0 0,-1.70625 m -17.51,-2.36125 c 0,0 -0.5675,1.56875 -2.2675,2.09125 0,0 -2.32625,0.4425 -2.3625,1.97625 0,0 -0.095,1.92637 1.605,1.92637 l 15.63875,0 0,-9.39387 -2.85125,2.29262 0.8025,0.83488 0,4.34 -12.7625,0 c 0,0 -0.80125,-0.3025 -0.17375,-0.86125 0.62625,-0.5575 0,0 0,0 0,0 1.99625,-0.8725 2.37125,-2.91875 l 0,-0.2875"
         id="path7423"
         style="fill:#000000;fill-opacity:1;fill-rule:evenodd;stroke:none" />
      <path
         d="m 569.36102,726.57758 0,9.67387 1.84875,0 0,-6.54387 c 0,0 -0.009,-1.05625 0.9675,-1.15125 l -2.81625,-1.97875 m -25.92875,3.37387 c 0,0 -1.99375,1.00488 -2.495,1.04988 0,0 -0.95875,0.2475 -1.68875,1.105 0,0 -0.92625,1.19137 -1.07125,2.21875 0,0 -0.1475,1.56762 -0.4975,1.92637 l 3.82625,0 0,0.9425 c 0,0 10e-4,1.54625 -2.19125,1.19613 0,0 0.67,1.7525 3.29875,0.87762 0,0 1.0525,-0.61387 0.81875,-1.98637 l 0,-1.02988 24.83625,0 0,-9.58512 -2.46375,2.10012 c 0,0 0.63875,-0.3575 0.63875,1.49113 l 0,4.0675 -1.84125,0 0,-3.6425 c 0,0 0,-0.425 -0.55875,-0.425 l -13.275,0 c 0,0 -0.58375,-0.235 0.035,-0.445 0,0 3.9225,-1.49125 4.37625,-2.85 0,0 -2.4675,1.7675 -5.4225,2.2225 0,0 -4.51625,0.96875 -4.83,2.92125 l 17.3475,0 c 0,0 0.45375,-10e-4 0.45375,0.485 l 0,1.73375 -19.29625,0 0,-4.37363 m -1.92625,3.05863 c 0,0 -1.1025,-0.0113 -1.27625,1.315 l 1.27625,0 0,-1.315 m -24.7975,-3.79738 c 0,0 -1.24,0.71988 -1.67,0.88113 0,0 -1.50125,0.69137 -1.62,0.90625 0,0 -0.8,0.4175 -1.32375,1.515 0,0 -0.47625,1.1075 -0.5,1.81 l -0.215,1.92637 24.4925,0 0,-6.57375 -2.555,1.9175 c 0,0 0.5025,-0.13762 0.5025,1.18488 0,1.3225 0,0 0,0 l 0,1.545 -3.65125,0 0,-5.05738 -2.69125,2.14238 c 0,0 0.63875,0 0.63875,1.23387 l 0,1.68113 -6.57,0 0,-4.55613 -2.73875,2.19 c 0,0 0.59375,0.18238 0.63875,1.095 l 0,1.27113 -2.7375,0 0,-5.11238 m -1.96125,3.56738 c 0,0 -1.00375,-0.19488 -1.2775,1.545 l 1.2775,0 0,-1.545 m 10.5,-4.30988 c -0.48375,0 -0.87625,-0.39262 -0.87625,-0.87637 0,-0.4825 0.3925,-0.87625 0.87625,-0.87625 0.48375,0 0.87625,0.39375 0.87625,0.87625 0,0.48375 -0.3925,0.87637 -0.87625,0.87637 m -0.0175,2.70113 c -0.485,0 -0.8775,-0.3925 -0.8775,-0.87625 0,-0.48363 0.3925,-0.87738 0.8775,-0.87738 0.48375,0 0.87625,0.39375 0.87625,0.87738 0,0.48375 -0.3925,0.87625 -0.87625,0.87625 m 8.365,7.14125 c 0,-0.48363 0.39125,-0.8775 0.87625,-0.8775 0.4825,0 0.875,0.39387 0.875,0.8775 0,0.4825 -0.3925,0.87625 -0.875,0.87625 -0.485,0 -0.87625,-0.39375 -0.87625,-0.87625 m -2.7025,-0.0199 c 0,-0.48262 0.39375,-0.87512 0.8775,-0.87512 0.4825,0 0.875,0.3925 0.875,0.87512 0,0.48488 -0.3925,0.87613 -0.875,0.87613 -0.48375,0 -0.8775,-0.39125 -0.8775,-0.87613 m -11.3325,0.0199 c 0,-0.48612 0.39125,-0.88 0.87625,-0.88 0.4825,0 0.875,0.39388 0.875,0.88 0,0.4825 -0.3925,0.875 -0.875,0.875 -0.485,0 -0.87625,-0.3925 -0.87625,-0.875 m -2.7025,-0.0199 c 0,-0.48387 0.3925,-0.87512 0.8775,-0.87512 0.48375,0 0.875,0.39125 0.875,0.87512 0,0.48375 -0.39125,0.87613 -0.875,0.87613 -0.485,0 -0.8775,-0.39238 -0.8775,-0.87613 m -2.2625,-10.805 c 0,-0.48387 0.3925,-0.87625 0.87625,-0.87625 0.48375,0 0.87625,0.39238 0.87625,0.87625 0,0.485 -0.3925,0.87613 -0.87625,0.87613 -0.48375,0 -0.87625,-0.39113 -0.87625,-0.87613 m -2.70125,-0.0163 c 0,-0.48637 0.3925,-0.87625 0.87625,-0.87625 0.48375,0 0.87625,0.38988 0.87625,0.87625 0,0.48238 -0.3925,0.875 -0.87625,0.875 -0.48375,0 -0.87625,-0.39262 -0.87625,-0.875"
         id="path7425"
         style="fill:#000000;fill-opacity:1;fill-rule:evenodd;stroke:none" />
      <path
         d="m 596.41727,657.77395 c 14.65375,1.22613 26.15238,13.5075 26.15238,28.47625 0,15.78125 -12.79238,28.57488 -28.57376,28.57488 -15.78237,0 -28.57487,-12.79363 -28.57487,-28.57488 0,-14.69887 11.095,-26.80387 25.395,-28.40012 0.008,0 4.48625,8.65375 3.38125,17.15625 0,0 1.95625,-2.13125 1.7975,-5.98238 0,0 1.41375,2.60488 1.7925,4.47113 0,0 0.28625,-1.53863 0.25375,-1.85375 l 1.235,3.08887 c 0.0625,0.63363 0.4425,-4.10262 -0.095,-6.97262 0,0 -0.68625,-5.105 -2.52,-9.36625 l -0.24375,-0.61738"
         id="path7427"
         style="fill:#000000;fill-opacity:1;fill-rule:evenodd;stroke:none" />
      <path
         d="m 590.82352,713.77145 c 0,0 3.765,0.33738 5.6475,0 0,0 -3.59875,-7.23762 -3.1575,-14.85762 0,0 0.27625,-6.0175 2.15375,-10.32375 0,0 3.47737,-7.61988 3.53375,-11.0975 0,0 -0.27625,-2.04375 -0.7175,-2.54113 0,0 -0.38875,1.54488 -0.66375,1.82238 0,0 -0.52875,-2.9175 -1.0775,-4.16113 0,0 -1.13375,2.935 -2.52125,4.38 0,0 -1.085,4.92 -3.675,10.52613 0,0 -2.69125,6.97625 -2.2775,13.825 0,0 0.40125,6.86137 2.38125,11.84375 l 0.37375,0.58387"
         id="path7429"
         style="fill:#fb0011;fill-opacity:1;fill-rule:evenodd;stroke:none" />
      <path
         d="m 590.82352,713.77145 c 0,0 3.765,0.33738 5.6475,0 0,0 -3.59875,-7.23762 -3.1575,-14.85762 0,0 0.27625,-6.0175 2.15375,-10.32375 0,0 3.47737,-7.61988 3.53375,-11.0975 0,0 -0.27625,-2.04375 -0.7175,-2.54113 0,0 -0.38875,1.54488 -0.66375,1.82238 0,0 -0.52875,-2.9175 -1.0775,-4.16113 0,0 -1.13375,2.935 -2.52125,4.38 0,0 -1.085,4.92 -3.675,10.52613 0,0 -2.69125,6.97625 -2.2775,13.825 0,0 0.40125,6.86137 2.38125,11.84375 l 0.37375,0.58387 z"
         id="path7431"
         style="fill:none;stroke:#fb0011;stroke-width:0.135875;stroke-linecap:butt;stroke-linejoin:miter;stroke-miterlimit:3.86369991;stroke-opacity:1;stroke-dasharray:none" />
    </g>
  </g>
</svg>
