<svg height="228.035085" viewBox="0 0 600 312.02988" width="438.52901" xmlns="http://www.w3.org/2000/svg"><g transform="matrix(.74719801 0 0 .74719801 -73.972603 -217.43462)"><path d="m130.2 672.7c-.3-7.5-6.6-9.9-12.1-9.9-4.2 0-11.2 1.1-11.2 8.6 0 4.1 2.9 5.5 5.8 6.2l14 3.2c6.3 1.5 11.1 5.3 11.1 13 0 11.6-10.7 14.8-19.1 14.8-9.1 0-12.6-2.7-14.8-4.7-4.1-3.7-4.9-7.8-4.9-12.4h6.2c0 8.8 7.2 11.4 13.5 11.4 4.8 0 12.8-1.2 12.8-8.2 0-5.1-2.4-6.7-10.4-8.6l-10-2.3c-3.2-.7-10.4-3-10.4-11.5 0-7.6 5-15.1 16.8-15.1 17.1 0 18.8 10.2 19.1 15.6h-6.4z"/><path d="m173.5 693 4.8 14.2h7.2l-17.7-48.9h-7.5l-18.3 48.9h6.8l5.1-14.2zm-17.6-5.8 7.8-21.5h.1l7.2 21.5z"/><path d="m230.2 658.4v31.6c0 10-6.3 18.4-19.7 18.4-13.1 0-18.8-8.5-18.8-17.6v-32.6h6.6v30.7c0 10.6 6.5 13.5 12.4 13.5 6.1 0 12.9-2.8 12.9-13.4v-30.9h6.6z"/><path d="m241.1 707.2h19.5c16.1 0 20.8-14.2 20.8-25.1 0-14.1-7.8-23.7-20.5-23.7h-19.8zm6.6-43.2h12.3c9 0 14.6 6.2 14.6 18.5s-5.6 19-14.2 19h-12.8v-37.5z"/><path d="m290.9 707.2v-48.8h6.6v48.8z"/><path d="m334.2 684.4h13c5.4 0 11.5 1.4 11.5 8.2 0 5.5-3.5 8.9-10.4 8.9h-14.1zm-6.6 22.8h21c10.9 0 16.6-6.6 16.6-14.4 0-8.4-5.6-10.6-8.8-11.9 5.3-2.5 6.5-7 6.5-10.2 0-6.6-4.7-12.3-13.8-12.3h-21.5zm6.6-43.2h12c7.3 0 10.1 2.6 10.1 7.1 0 6-3.9 7.9-10.2 7.9h-11.9z"/><path d="m374.1 707.2v-48.8h6.6v48.8z"/><path d="m398.4 667.7v39.5h-6.3v-48.8h7.8l24.4 39.5h.1v-39.5h6.4v48.8h-7.4l-24.8-39.5z"/><path d="m447.8 658.4v42.9h24.8v5.9h-31.4v-48.8z"/><path d="m506.4 693 4.8 14.2h7.2l-17.7-48.9h-7.5l-18.4 48.9h6.8l5.1-14.2zm-17.6-5.8 7.8-21.5h.1l7.2 21.5z"/><path d="m524.8 707.2h19.5c16.1 0 20.8-14.2 20.8-25.1 0-14.1-7.8-23.7-20.6-23.7h-19.8v48.8zm6.6-43.2h12.3c9 0 14.6 6.2 14.6 18.5s-5.6 19-14.2 19h-12.8v-37.5z"/><path d="m574.6 707.2v-48.8h6.6v48.8z"/><path d="m598.9 667.7v39.5h-6.4v-48.8h7.8l24.5 39.5h.1v-39.5h6.4v48.8h-7.4l-24.9-39.5z"/><path d="m681.9 681.1h21.4v26.2h-4.3l-1.5-6.4c-3.3 4.6-9.5 7.6-16.2 7.6-8.4 0-12.5-3.1-15-5.5-7.5-7.1-7.7-15.4-7.7-20.6 0-11.9 7.2-25.3 23.2-25.3 9.1 0 19.3 5.2 20.7 16.1h-6.4c-2.1-8.5-9.3-10.2-14.7-10.2-8.8 0-16 7-16 19.7 0 9.9 3.3 20.1 16.3 20.1 2.5 0 6.4-.3 10-3.1 4.3-3.4 5.4-7.8 5.4-13h-15.3v-5.6z"/><path d="m721 686.2h16c7.9 0 8.7 4.7 8.7 8.7 0 1.8.2 9.3 1.2 12.3h8.1v-1.1c-2-1.2-2.4-2.2-2.5-4.9l-.4-8.9c-.2-6.8-3-8.1-5.8-9.2 3.1-1.8 6.8-4.5 6.8-11.7 0-10.3-8-13.1-16.1-13.1h-22.6v48.9h6.6zm0-22.2h16.5c3.3 0 8.8.6 8.8 8.1 0 7.2-5.1 8.4-9.9 8.4h-15.4z"/><path d="m807.8 682.8c0-10.5-5.6-25.7-23.8-25.7-18.3 0-23.8 15.2-23.8 25.7s5.6 25.7 23.8 25.7 23.8-15.2 23.8-25.7zm-6.8 0c0 11.5-6.4 19.8-17 19.8s-17-8.3-17-19.8 6.4-19.8 17-19.8 17 8.3 17 19.8z"/><path d="m854.3 658.4v31.6c0 10-6.2 18.4-19.7 18.4-13.1 0-18.8-8.5-18.8-17.6v-32.6h6.6v30.7c0 10.6 6.5 13.5 12.4 13.5 6.1 0 12.9-2.8 12.9-13.4v-30.9h6.6z"/><path d="m872.1 686.6h15.4c10.6 0 14.5-7.7 14.5-14.5 0-7.9-5.5-13.7-14.5-13.7h-22v48.9h6.6zm0-22.6h13.4c5.5 0 9.7 2 9.7 8.1 0 6.6-4 8.7-9.9 8.7h-13.1v-16.8z"/><path d="m485.6 608.1c-4.7 0-21 0-21 0l-4.1 7.7h33.8v-18.9c0-11.3-8.8-11.8-8.8-11.8s-4.5 0-9.4 0-6.9-2.2-6.9-2.2l-4.6 9.9h17.2s3.6 0 3.6 6.9z"/><path d="m663.1 592.7c-5.1 0-5.2 6.9-5.2 6.9v8.5h10.3v-15.4c-.1 0-.1 0-5.1 0zm25.8 15.4s-3.9 0-3.9-11.3 8.8-11.8 8.8-11.8h11.6c4.9 0 6.9-2.2 6.9-2.2l4.6 9.9h-17.2s-5.8 0-5.8 6.9 2.3 8.5 6.9 8.5h16.2l4.1 7.7h-72v-13.2s-1.5-17.6 13.2-17.6h14.6v23.1z"/><path d="m195.4 599.5c0-6.9-3.6-6.9-3.6-6.9h-17.2l4.6-9.9s1.9 2.2 6.9 2.2h9.4s8.8.6 8.8 11.8v18.9h-33.8l4.1-7.7h21z"/><path d="m119 592.7c-5 0-5.2 6.9-5.2 6.9v8.5h10.2v-15.4zm-14 23v-13.2s-1.5-17.6 13.2-17.6h14.7v23.1h22v-23h8.8v30.8h-58.7z"/><path d="m231.7 608.1h-10.2v-9.6s-1.4-5.8 10.2-5.8zm117.5-30.8v30.8h-9.9v-23.1l-8.8 3.7v19.4h-8.8v-19.1l-8.8 3.7v15.4h-9.9v-18.5l-8.8 3.7v14.8h-25.8c-4.7 0-6.9-1.7-6.9-8.5 0-6.9 5.8-6.9 5.8-6.9h17.2l-4.6-9.9s-1.9 2.2-6.9 2.2c-4.9 0-11.6 0-11.6 0s-8.8.6-8.8 11.8c0 11.3 3.9 11.3 3.9 11.3h-16.2v-23.1h-19s-8.8-.5-8.8 10.2v20.6h18.9v8s1.1 6.3-6 9.9c12.9.5 14.8-9.1 14.8-9.1v-8.8h112.4s5.1.3 5.1-3.7 0-34.8 0-34.8z"/><path d="m888.6 608.1h-9.2c-4.4-.6-8.4-2.9-8.4-8.1 0-7.3 5.5-7.3 5.5-7.3h12.1zm-91.8 5.5c-4.1 0-7.5-3.4-7.5-7.5s3.4-7.5 7.5-7.5c4.2 0 7.5 3.4 7.5 7.5s-3.3 7.5-7.5 7.5zm-44.5-5.5h-10.2v-9.6s-1.4-5.8 10.2-5.8zm145 0v-23.1h-23.1s-13.4 0-13.5 11.4c0 0-.4 10.4 5.5 11.7h-13.9c2.9-.4 4.2-5.6 4-10.6-.2-7-9-8.6-9-8.6s-14.8.4-17 0-2-1.3-2-1.3l-3.7 7.7h17.9s5.9-.9 5.9 6.6c0 2.9.4 6.2-6.6 6.2h-29.7c.1-.7.1-1.3.1-2 0-8.5-6.9-15.4-15.4-15.4s-15.4 6.9-15.4 15.4c0 .7 0 1.4.1 2h-20.4v-23.1h-19s-8.8-.5-8.8 10.2v20.6h19v8s1.1 6.3-6 9.9c12.9.5 14.8-9.1 14.8-9.1v-8.8h23.7c2.8 3.5 7.1 5.7 12 5.7 4.8 0 9.1-2.2 12-5.7h83.2c7.1-.4 5.3-7.7 5.3-7.7z"/><path d="m555.7 585-8.8 3.3v23.1s.6 4.4 8.8 4.4h49.2s6.5-.8 6.5-6.3 0-8 0-8h15.8s5.9.3 5.9-5.5 0-5.8 0-5.8l-8.8-5.2v9.9h-12.8v-9.9l-8.8 3v20h-46.9v-23z"/><path d="m449.3 585-8.8 3v20h-46.9v-23l-8.8 3.3v23.1s.6 4.4 8.8 4.4h49.2s6.5-.8 6.5-6.3z"/><path d="m516.2 608.1-3.3 3h6l-3.3-3m-8.8 7.6-1.4-6 5.2-3.3-6.6-7.4v-26.6l7.1 5.8v21.4l4.7 4.1 4.7-4.1v-21.4l7.1-5.8v26.6l-6.6 7.4 5.5 3-1.6 6.3z"/><path d="m375.6 577.6v38.1h-8.8v-39.2z"/><path d="m109.2 579.8c2.6 0 4.7-2.1 4.7-4.7s-2.1-4.7-4.7-4.7-4.7 2.1-4.7 4.7c.1 2.6 2.1 4.7 4.7 4.7z"/><path d="m122.1 579.8c2.6 0 4.7-2.1 4.7-4.7s-2.1-4.7-4.7-4.7-4.7 2.1-4.7 4.7c.1 2.6 2.1 4.7 4.7 4.7z"/><path d="m655.2 579.8c2.6 0 4.7-2.1 4.7-4.7s-2.1-4.7-4.7-4.7-4.7 2.1-4.7 4.7c.1 2.6 2.2 4.7 4.7 4.7z"/><path d="m668.1 579.8c2.6 0 4.7-2.1 4.7-4.7s-2.1-4.7-4.7-4.7-4.7 2.1-4.7 4.7c.1 2.6 2.1 4.7 4.7 4.7z"/><path d="m142.7 630.8c2.6 0 4.7-2.1 4.7-4.7s-2.1-4.7-4.7-4.7-4.7 2.1-4.7 4.7c0 2.7 2.1 4.7 4.7 4.7z"/><path d="m155.6 630.8c2.6 0 4.7-2.1 4.7-4.7s-2.1-4.7-4.7-4.7-4.7 2.1-4.7 4.7c0 2.7 2.1 4.7 4.7 4.7z"/><path d="m415.8 579.8c2.6 0 4.7-2.1 4.7-4.7s-2.1-4.7-4.7-4.7-4.7 2.1-4.7 4.7 2.1 4.7 4.7 4.7z"/><path d="m578.8 592.7c2.6 0 4.7-2.1 4.7-4.7s-2.1-4.7-4.7-4.7-4.7 2.1-4.7 4.7 2.1 4.7 4.7 4.7z"/><path d="m624.2 615.7c2.6 0 4.7-2.1 4.7-4.7s-2.1-4.7-4.7-4.7-4.7 2.1-4.7 4.7c0 2.7 2.1 4.7 4.7 4.7z"/><path d="m840.8 629.5c2.6 0 4.7-2.1 4.7-4.7s-2.1-4.7-4.7-4.7-4.7 2.1-4.7 4.7 2.1 4.7 4.7 4.7z"/><g fill="#75767a"><path d="m603 426 67.3-67.3-84.3-60.2v46.8l-3.9 3.9h-165.5l-3.9-3.9v-46.8l-84.3 60.1 67.3 67.3h207.3zm-208.4 4.3-72.1-72.2 94.1-67.1v54.4h165.5v-54.4l94.1 67.1-72.2 72.2z"/><path d="m585.7 355.4h-172.6l-5.3-5.3v-40.3l-8.1 5.7v35.9l11.5 11.6h176.3l11.5-11.6v-35.9l-8.1-5.7v40.3z"/><path d="m589.3 369.9h-179.8l-17.4-17.3v-31.7l-8.1 5.8v27.2l23.7 23.7h183.4l23.6-23.7v-27.2l-8.1-5.8v31.7z"/><path d="m592.8 384.4h-186.9l-29.5-29.5v-22.8l-8.1 5.8v18.4l35.8 35.7h190.6l35.7-35.7v-18.4l-8.1-5.8v22.8z"/><path d="m596.3 398.7h-193.9l-41.5-41.4v-14.1l-8.1 5.8v9.5l47.9 48h197.4l47.9-48-.1-9.5-8.1-5.8v14.1z"/><path d="m398.8 413.3-53.6-53.6v-5.3l-8.6 6.1 60.3 60.4h204.9l60.3-60.4-8.6-6.1v5.3l-53.6 53.6z"/><path d="m422.6 452.8 76.7 76.8 76.7-76.8zm162.9-3.8-86.1 86.1-86.1-86.1z"/><path d="m432.3 457.1 67.1 67.1 67-67.1h-9.1l-57.9 58-58-58z"/><path d="m448.2 457.1 51.2 51.1 51.1-51.1h-9.1l-42 42.1-42.1-42.1z"/><path d="m463.6 457.1 35.8 36 35.7-36h-8.9l-26.8 27-27-27z"/><path d="m478.5 457.1 20.9 21.2 20.8-21.2h-8.8l-12 12.1-12.1-12.1z"/><path d="m492.7 457.1 6.7 6.9 6.6-6.9h-4.8l-1.8 2-1.9-2z"/></g></g></svg>