<?xml version="1.0" encoding="utf-8"?>
<!-- Generator: Adobe Illustrator 24.0.0, SVG Export Plug-In . SVG Version: 6.00 Build 0)  -->
<svg version="1.1" id="Layer_1" xmlns="http://www.w3.org/2000/svg" xmlns:xlink="http://www.w3.org/1999/xlink" x="0px" y="0px"
	 viewBox="0 0 512 512" style="enable-background:new 0 0 512 512;" xml:space="preserve">
<style type="text/css">
	.st0{clip-path:url(#XMLID_2_);fill:url(#XMLID_3_);}
	.st1{fill:#5F636A;}
	.st2{fill:#FFFFFF;}
</style>
<g id="XMLID_307_">
	<g>
		<defs>
			<polygon id="XMLID_304_" points="356.9,194.3 356.9,194.3 356.9,317.2 479.7,317.2 479.7,194.3 			"/>
		</defs>
		<clipPath id="XMLID_2_">
			<use xlink:href="#XMLID_304_"  style="overflow:visible;"/>
		</clipPath>
		
			<radialGradient id="XMLID_3_" cx="-57.8913" cy="648.9713" r="4.9372" gradientTransform="matrix(36.0383 -31.6345 -31.6345 -36.0383 22917.916 21906.9805)" gradientUnits="userSpaceOnUse">
			<stop  offset="0" style="stop-color:#7FBF3F"/>
			<stop  offset="0.29" style="stop-color:#7FBF3F"/>
			<stop  offset="0.44" style="stop-color:#5FB744"/>
			<stop  offset="0.4803" style="stop-color:#4BB045"/>
			<stop  offset="0.5704" style="stop-color:#22A347"/>
			<stop  offset="0.6417" style="stop-color:#099B48"/>
			<stop  offset="0.685" style="stop-color:#009848"/>
			<stop  offset="0.6969" style="stop-color:#007688"/>
			<stop  offset="0.705" style="stop-color:#0062AF"/>
			<stop  offset="0.8778" style="stop-color:#009DDF"/>
			<stop  offset="0.9" style="stop-color:#00A5E6"/>
			<stop  offset="1" style="stop-color:#00ACEC"/>
		</radialGradient>
		<polygon id="XMLID_305_" class="st0" points="296,247.8 426.2,133.4 540.6,263.7 410.3,378.1 		"/>
	</g>
	<g id="XMLID_306_">
		<path id="XMLID_303_" class="st1" d="M48.8,246.2c1.8,0,3.2-1.5,3.2-3.3c0-1.7-1.5-3.2-3.2-3.2c-1.8,0-3.3,1.4-3.3,3.2
			C45.5,244.8,46.9,246.2,48.8,246.2"/>
		<path id="XMLID_302_" class="st1" d="M58.1,277.9c-1.9,0-3.3,1.4-3.3,3.2c0,1.8,1.4,3.2,3.3,3.2c1.7,0,3.2-1.5,3.2-3.2
			C61.3,279.3,59.8,277.9,58.1,277.9"/>
		<path class="st1" d="M62.9,263.8c0,2.9-1.1,3.9-4.1,3.9h-3.5v-7.2c0-7.3-3.7-11.1-10.7-11.1c-8.5,0-12.4,5.9-12.4,11.8
			c0,4.3,1.4,7.5,3.9,9.3c2.9,1.9,5.4,2.3,11,2.3h11.9c6.3,0,9.9-2.4,9.9-8.8v-14.6h-6.2V263.8z M49.3,267.7h-3.5
			c-5.1,0-7.2-2-7.2-6.7c0-3.9,2.2-6.5,5.7-6.5c3.5,0,5.1,2.1,5.1,6.6V267.7z"/>
		<path id="XMLID_299_" class="st1" d="M41.3,246.2c1.8,0,3.2-1.5,3.2-3.3c0-1.7-1.5-3.2-3.2-3.2c-1.8,0-3.2,1.4-3.2,3.2
			C38.1,244.8,39.4,246.2,41.3,246.2"/>
		<path id="XMLID_298_" class="st1" d="M93.4,261.2c0-5.9-3.8-11.8-12.3-11.8h-4.9v5.1h5.3c3.5,0,5.7,2.5,5.7,6.5v6.7H71.3v5.1h22.1
			V261.2z"/>
		<path id="XMLID_297_" class="st1" d="M65.5,277.9c-1.8,0-3.2,1.4-3.2,3.2c0,1.8,1.4,3.2,3.2,3.2c1.8,0,3.3-1.5,3.3-3.2
			C68.8,279.3,67.3,277.9,65.5,277.9"/>
		<rect id="XMLID_296_" x="299.8" y="238" class="st1" width="6" height="34.8"/>
		<path id="XMLID_295_" class="st1" d="M301.8,277.9v5.8c1.9,0.3,3.3,0.5,4.7,0.5c8.3,0,12.4-3.8,12.4-11.7v-20.8h-6.3v20.9
			c0,3.9-2.2,6.3-5.7,6.3c-2.2,0-3.8-0.5-4.4-0.7L301.8,277.9z"/>
		<rect id="XMLID_294_" x="322.9" y="241.8" class="st1" width="6" height="31.1"/>
		<path class="st1" d="M226.4,270.5c2.9,1.9,5.4,2.3,11,2.3h2.1c-0.1,4-2.3,6-6.6,6c-1.9,0-4.3-0.3-6.8-1.1l-0.4-0.1v5.8
			c3.1,0.5,5.4,0.8,7.5,0.8c8.2,0,12.4-3.8,12.5-11.3H281c9.7,0,14.9-2.5,14.9-11.6c0-5.9-3.8-11.8-12.3-11.8
			c-6.9,0-10.7,3.8-10.7,11.1v7.2h-5.5c0.8-1.5,1.3-3.4,1.3-5.7c0-5.1-3.3-11.1-12.3-11.1h-0.8l11.7-12.9H260
			c-4.4,4.9-11,12.1-11.8,12.9v5.2h8.5c2.6,0,5.7,1,5.7,5.7c0,4.3-1.9,5.9-7.2,5.9h-9.7v-7.2c0-7.3-3.7-11.1-10.7-11.1
			c-8.5,0-12.4,5.9-12.4,11.8C222.5,265.5,223.9,268.7,226.4,270.5 M279,261.1c0-4.5,1.6-6.6,5.1-6.6c3.5,0,5.7,2.5,5.7,6.5
			c0,4.7-2.1,6.7-7.1,6.7H279V261.1z M234.4,254.5c3.5,0,5,2.1,5,6.6v6.5H236c-5.1,0-7.2-2-7.2-6.7
			C228.8,257.1,231,254.5,234.4,254.5"/>
		<path class="st1" d="M191,272.8c2.6,0,5.3-0.6,6.7-1.5c1.9-1.1,2.8-3.1,2.9-4.1c0.2-0.8,0.3-1.6,0.3-3.3v-25.9h-6.2v25.7
			c0,2.9-1.1,3.9-4.1,3.9h-1.5c-1,0-2-0.2-3.1-0.6c0.1-0.8,0.2-1.7,0.2-2.7v-12.7h-6.1v12.3c0,2.7-1.2,3.8-3.9,3.8
			c-1,0-2-0.1-3.1-0.5c0.1-0.9,0.2-1.7,0.2-3v-12.6h-6.1v12.3c0,2.4-0.6,3.4-2.3,3.7h-3.1c-0.5,0-1.5,0.1-1.5-0.5v-15.5h-6.1v16H144
			c3.3-3.5,5.3-7.3,5.3-10.1c0-5.5-6.6-8.3-13.1-8.3c-6.5,0-13.1,2.8-13.1,8.3c0,3.9,3.5,8.1,5.5,10.1h-9.3v-7.2
			c0-7.3-3.7-11.1-10.7-11.1c-8.5,0-12.3,5.9-12.3,11.8c0,4.3,1.3,7.5,3.9,9.3c2.9,1.9,5.4,2.3,11,2.3h2.1c-0.1,4-2.3,6-6.6,6
			c-1.9,0-4.3-0.3-6.8-1.1l-0.4-0.1v5.8c3.1,0.5,5.4,0.8,7.5,0.8c8.2,0,12.4-3.8,12.5-11.3h41.3c1.2,0.1,2.4,0.2,3.6,0.2
			c2.3,0,4.1-0.4,5.7-1.3c2.2,0.9,4.8,1.3,7.3,1.3c2.3,0,4.3-0.5,5.7-1.5c2,0.9,4.5,1.3,7.3,1.3H191z M113.1,267.7h-3.5
			c-5.1,0-7.2-2-7.2-6.7c0-3.9,2.2-6.5,5.7-6.5c3.5,0,5.1,2.1,5.1,6.6V267.7z M136.2,267.3c-0.9,0-7.3-6.1-7.3-9.7
			c0-2,3.9-3.1,7.5-3.1c3.5,0,7.2,1.1,7.2,3.1C143.6,261.1,137.4,267.3,136.2,267.3"/>
		<rect id="XMLID_287_" x="205.6" y="238" class="st1" width="6" height="34.8"/>
		<path id="XMLID_286_" class="st1" d="M330.4,236.3H327c-1.4-0.1-1.7-0.3-1.7-1.4c0-1.2,0.4-1.5,1.9-1.5c0.9,0,1.6,0.2,2.6,0.9
			v-2.9l-0.5-0.2c-0.7-0.3-1.4-0.5-2.2-0.5c-3.1,0-4.8,1.5-4.8,4.2c0,0.6,0.1,1,0.3,1.3h-1.1v2.7h8.9V236.3z"/>
		<path class="st1" d="M321.4,293.9c-6.5,0-11.9,5.3-11.9,11.9s5.3,11.9,11.9,11.9c6.5,0,11.8-5.3,11.8-11.9
			S327.9,293.9,321.4,293.9 M321.4,312.2c-3.6,0-6.5-2.9-6.5-6.5c0-3.5,2.9-6.4,6.5-6.4c3.5,0,6.4,2.9,6.4,6.4
			C327.8,309.3,324.9,312.2,321.4,312.2"/>
		<path id="XMLID_283_" class="st1" d="M277.9,293.6c-2.6,0-5.3,0.5-7.4,1.4c-1.7-1-3.4-1.4-5.8-1.4c-3,0-6.1,0.4-9.4,1.5l-0.6,0.2
			v21.8h5.9v-17.9c1.2-0.4,2.1-0.5,3.3-0.5c2.9,0,3.8,0.9,3.8,4v14.4h6v-14.8c0-1.3-0.1-2.2-0.3-3c1.2-0.4,2.1-0.6,3.2-0.6
			c2.8,0,4.1,1.3,4.1,4v14.4h5.9v-14.9c0-2.9-0.5-4.7-1.8-6.1C283.5,294.6,281,293.6,277.9,293.6"/>
		<path id="XMLID_282_" class="st1" d="M301.7,312.5c-4,0-6.2-2.5-6.2-6.7c0-4.4,2.3-6.9,6.3-6.9c0.8,0,1.5,0.1,2.2,0.3
			c0,0,1.2,0.4,2.3,1.2l2.5-4.3c-1.4-1.1-3-1.6-3.5-1.8c-1.5-0.5-3.8-0.5-3.8-0.5c-7.1,0-11.9,4.9-11.9,12.3
			c0,7.1,4.5,11.6,11.6,11.6c0,0,4.7,0.2,7.9-2.7l-3-3.8C304.4,312.1,303.3,312.5,301.7,312.5"/>
		<path id="XMLID_281_" class="st1" d="M224.4,293.8c-8.5,0-12.4,3.7-12.4,11.7v11.7h6.1V306v-0.5c0-4,2.3-6.5,5.8-6.5
			c1.5,0,2.6,0.3,3.4,0.5l1.4-5.3C226.3,293.8,224.4,293.8,224.4,293.8"/>
		<path class="st1" d="M251.3,304.8v12.3h-8.1c-5.6,0-8.1-0.4-11-2.3c-2.5-1.7-3.9-5-3.9-9.3c0-5.9,3.9-11.8,12.4-11.8
			C247.5,293.8,251.3,297.6,251.3,304.8 M245.3,305.5c0-4.5-1.7-6.7-5.2-6.7c-3.5,0-5.8,2.6-5.8,6.5c0,4.7,2.3,6.8,7.3,6.8h3.7
			V305.5z"/>
		<path class="st1" d="M208.7,304.8v12.3h-8.1c-5.6,0-8.1-0.4-11-2.3c-2.5-1.7-3.9-5-3.9-9.3c0-5.9,3.9-11.8,12.4-11.8
			C205,293.8,208.7,297.6,208.7,304.8 M202.5,305.5c0-4.5-1.6-6.7-5.1-6.7c-3.5,0-5.8,2.6-5.8,6.5c0,4.7,2.3,6.8,7.3,6.8h3.6V305.5z
			"/>
		<path id="XMLID_276_" class="st1" d="M81.6,303.1c-3.6-1.1-5.1-1.7-5.1-2.8c0-1.2,1.8-1.9,4.1-1.9c2.2,0,4.4,0.5,6,1l1.4-5.2
			c-2.4-0.6-5.3-0.9-7.3-0.9c-6.4,0-9.9,2.9-9.9,7.2c0,2.2,0.6,5.1,7.3,7c4,1.2,5.4,1.3,5.4,2.6c0,1.4-2.5,2.5-5.3,2.5
			c-2.9,0-5.9-1.3-7.8-2.2v5.6c2.2,0.9,4.9,1.6,7.7,1.6c7,0,11.1-3,11.1-7.5C89.3,306.6,87.2,304.7,81.6,303.1"/>
		<path id="XMLID_275_" class="st1" d="M132.4,308.5c0,2.9-1.1,3.9-4.2,3.9h-0.3c-3.1,0-4.2-1.1-4.2-3.9v-14.4h-5.9v14.8
			c0,6.9,3.9,8.7,9.8,8.7h1c6.3,0,10-1.8,10-8.7v-14.8h-6.1V308.5z"/>
		<path id="XMLID_274_" class="st1" d="M170.5,285.7c-1.8,0-3.2,1.4-3.2,3.2c0,1.8,1.4,3.2,3.2,3.2c1.8,0,3.2-1.4,3.2-3.2
			C173.7,287.2,172.3,285.7,170.5,285.7"/>
		<rect id="XMLID_273_" x="167.6" y="294.8" class="st1" width="5.9" height="22.4"/>
		<path class="st1" d="M114.4,304.8v12.3h-8.1c-5.6,0-8.1-0.4-11-2.3c-2.5-1.7-3.9-5-3.9-9.3c0-5.9,3.9-11.8,12.4-11.8
			C110.6,293.8,114.4,297.6,114.4,304.8 M108.4,305.5c0-4.5-1.7-6.7-5.2-6.7c-3.5,0-5.8,2.6-5.8,6.5c0,4.7,2.3,6.8,7.3,6.8h3.7
			V305.5z"/>
		<path class="st1" d="M163.8,285.2v31.9h-7.4c-5.6,0-8.1-0.4-11-2.3c-2.5-1.7-3.9-5-3.9-9.3c0-7.1,4.8-11.7,11.7-11.7h0.6
			c1.5,0,3,0.5,4.3,1.3v-9.9H163.8z M158.1,305.6c0-4.8-1.3-6.7-4.7-6.7c-3.5,0-5.8,2.6-5.8,6.5c0,4.7,2.2,6.8,7.3,6.8h3.2V305.6z"
			/>
		<path id="XMLID_268_" class="st2" d="M424.6,245.9c1.5,0.7,2.4,2.2,2.2,3.4c-0.2,1.2-1.5,1.6-3,0.9c-1.5-0.8-2.5-2.3-2.2-3.5
			C421.8,245.5,423.1,245.2,424.6,245.9"/>
		<path id="XMLID_267_" class="st2" d="M428.9,222.2c1.2,0.6,2,1.7,1.9,2.4c-0.1,0.8-1.2,0.9-2.4,0.2c-1.2-0.6-2.1-1.7-1.9-2.5
			C426.7,221.7,427.7,221.6,428.9,222.2"/>
		<path id="XMLID_266_" class="st2" d="M429.3,219.9c1,0.5,1.7,1.4,1.6,2c-0.1,0.6-1,0.7-2,0.1c-1-0.5-1.7-1.4-1.6-2
			C427.5,219.4,428.3,219.4,429.3,219.9"/>
		<path id="XMLID_265_" class="st2" d="M429.7,217.6c0.9,0.5,1.6,1.3,1.5,1.8c-0.1,0.5-0.9,0.6-1.8,0.1c-0.9-0.5-1.6-1.3-1.5-1.9
			C428,217.1,428.8,217.1,429.7,217.6"/>
		<path id="XMLID_264_" class="st2" d="M430.1,215.3c0.9,0.5,1.5,1.2,1.4,1.7c-0.1,0.5-0.8,0.5-1.7,0c-0.9-0.5-1.5-1.2-1.4-1.7
			C428.5,214.8,429.2,214.8,430.1,215.3"/>
		<path id="XMLID_263_" class="st2" d="M430.4,213.2c0.8,0.4,1.4,1.1,1.3,1.5c-0.1,0.4-0.7,0.4-1.5,0c-0.8-0.4-1.4-1.1-1.3-1.5
			C428.9,212.7,429.6,212.8,430.4,213.2"/>
		<path id="XMLID_262_" class="st2" d="M430.7,211.3c0.7,0.4,1.2,1,1.2,1.4c-0.1,0.4-0.7,0.4-1.4,0c-0.7-0.4-1.3-1-1.2-1.4
			C429.4,210.9,430,210.9,430.7,211.3"/>
		<path id="XMLID_261_" class="st2" d="M431,209.4c0.7,0.4,1.2,0.9,1.1,1.3c-0.1,0.4-0.6,0.3-1.3,0c-0.7-0.4-1.2-0.9-1.1-1.3
			C429.8,209,430.3,209.1,431,209.4"/>
		<path id="XMLID_260_" class="st2" d="M431.3,207.6c0.6,0.3,1,0.7,1,1.1c-0.1,0.3-0.5,0.3-1.1-0.1c-0.6-0.3-1-0.8-1-1.1
			C430.2,207.2,430.7,207.3,431.3,207.6"/>
		<path id="XMLID_259_" class="st2" d="M431.6,205.8c0.5,0.3,0.9,0.7,0.9,1c-0.1,0.3-0.5,0.2-1-0.1c-0.5-0.3-0.9-0.7-0.9-1
			C430.6,205.4,431,205.5,431.6,205.8"/>
		<path id="XMLID_258_" class="st2" d="M431.8,204.1c0.5,0.3,0.8,0.6,0.8,0.8c0,0.3-0.4,0.2-0.9-0.1c-0.5-0.3-0.8-0.6-0.8-0.8
			C431,203.8,431.4,203.9,431.8,204.1"/>
		<path id="XMLID_257_" class="st2" d="M432.1,202.5c0.4,0.2,0.7,0.5,0.7,0.7c0,0.2-0.4,0.1-0.8-0.1c-0.4-0.2-0.7-0.5-0.7-0.7
			C431.4,202.2,431.7,202.3,432.1,202.5"/>
		<path id="XMLID_256_" class="st2" d="M423.1,254.1c-1.2-0.6-2-1.9-1.9-3c0.2-1,1.3-1.4,2.6-0.8c1.2,0.6,2,1.9,1.9,2.9
			C425.4,254.4,424.3,254.7,423.1,254.1"/>
		<path id="XMLID_255_" class="st2" d="M422.1,259.2c-1.2-0.6-2-1.9-1.8-3c0.2-1.1,1.3-1.4,2.5-0.9c1.2,0.6,2,1.9,1.8,2.9
			C424.4,259.4,423.3,259.8,422.1,259.2"/>
		<path id="XMLID_254_" class="st2" d="M421.1,264.4c-1.2-0.6-1.9-1.9-1.7-3c0.2-1.1,1.3-1.5,2.5-0.9c1.2,0.6,1.9,1.8,1.7,2.9
			C423.4,264.6,422.3,265,421.1,264.4"/>
		<path id="XMLID_253_" class="st2" d="M420,270.2c-1.2-0.5-1.9-1.8-1.7-3c0.3-1.1,1.3-1.5,2.4-1c1.1,0.5,1.9,1.8,1.7,2.9
			C422.2,270.3,421.1,270.7,420,270.2"/>
		<path id="XMLID_252_" class="st2" d="M418.8,276c-1-0.5-1.6-1.6-1.4-2.7c0.2-1,1.2-1.4,2.1-1c1,0.5,1.6,1.6,1.4,2.6
			C420.7,276,419.8,276.4,418.8,276"/>
		<path id="XMLID_251_" class="st2" d="M417.4,283c-1-0.4-1.6-1.6-1.3-2.6c0.2-1,1.1-1.5,2.1-1.1c0.9,0.4,1.5,1.6,1.3,2.6
			C419.3,282.9,418.4,283.4,417.4,283"/>
		<path id="XMLID_250_" class="st2" d="M415.8,290.5c-0.9-0.4-1.4-1.4-1.2-2.4c0.2-1,1-1.4,1.9-1.1c0.9,0.4,1.4,1.4,1.2,2.4
			C417.5,290.4,416.7,290.9,415.8,290.5"/>
		<path id="XMLID_249_" class="st2" d="M414.2,298.1c-0.7-0.3-1.2-1.2-1-2.1c0.2-0.9,0.9-1.3,1.7-1c0.7,0.3,1.1,1.2,1,2.1
			C415.7,297.9,415,298.3,414.2,298.1"/>
		<path id="XMLID_248_" class="st2" d="M429.8,248.7c1.1,0.6,1.9,1.8,1.8,2.8c-0.2,1-1.2,1.3-2.3,0.7c-1.2-0.6-2-1.8-1.8-2.8
			C427.6,248.4,428.6,248.2,429.8,248.7"/>
		<path id="XMLID_247_" class="st2" d="M434.9,250.9c1.4,0.7,2.4,2.3,2.3,3.5c-0.1,1.3-1.3,1.7-2.8,0.9c-1.5-0.8-2.5-2.3-2.3-3.6
			C432.2,250.5,433.4,250.2,434.9,250.9"/>
		<path id="XMLID_246_" class="st2" d="M470.1,249c-0.6-0.4-1-0.2-0.9,0.3c0.1,0.5,0.6,1.2,1.2,1.6c0.6,0.4,1,0.3,0.9-0.3
			C471.2,250.1,470.7,249.4,470.1,249"/>
		<path id="XMLID_245_" class="st2" d="M466,246.2c-0.8-0.5-1.3-0.3-1.2,0.3c0.1,0.7,0.8,1.6,1.5,2c0.8,0.5,1.3,0.3,1.2-0.4
			C467.5,247.5,466.8,246.7,466,246.2"/>
		<path id="XMLID_244_" class="st2" d="M454.6,284.5c-1-0.6-1.7-0.2-1.8,1c0,1.2,0.8,2.6,1.8,3.3c1,0.6,1.7,0.2,1.8-1
			C456.3,286.5,455.5,285.1,454.6,284.5"/>
		<path id="XMLID_243_" class="st2" d="M449.7,274.8c-1.2-0.7-2.1-0.2-2.1,1c0,1.3,0.8,2.8,2,3.5c1.2,0.7,2.1,0.2,2.1-1.1
			C451.7,276.9,450.8,275.5,449.7,274.8"/>
		<path id="XMLID_242_" class="st2" d="M444.5,266.4c-1.1-0.6-2-0.2-2.1,0.9c0,1.2,0.8,2.5,1.9,3.2c1.2,0.6,2.1,0.2,2.1-1
			C446.5,268.4,445.7,267,444.5,266.4"/>
		<path id="XMLID_241_" class="st2" d="M441.4,232c-1-0.5-1.9-0.4-1.9,0.3c0,0.7,0.7,1.7,1.8,2.3c1,0.5,1.9,0.4,1.9-0.3
			C443.2,233.5,442.4,232.6,441.4,232"/>
		<path id="XMLID_240_" class="st2" d="M462.4,247.2c-0.8-0.5-1.4-0.3-1.3,0.4c0.1,0.7,0.7,1.6,1.5,2.1c0.8,0.5,1.4,0.3,1.3-0.4
			C463.8,248.6,463.2,247.7,462.4,247.2"/>
		<path id="XMLID_239_" class="st2" d="M458.2,244.8c-0.8-0.5-1.5-0.3-1.4,0.4c0.1,0.7,0.8,1.7,1.6,2.2c0.9,0.5,1.5,0.3,1.4-0.4
			C459.8,246.2,459.1,245.3,458.2,244.8"/>
		<path id="XMLID_238_" class="st2" d="M450,243.3c-1-0.5-1.8-0.4-1.8,0.4c0,0.8,0.8,1.9,1.8,2.5c1,0.6,1.8,0.3,1.8-0.5
			C451.7,245,451,243.9,450,243.3"/>
		<path id="XMLID_237_" class="st2" d="M454.1,242.2c-1-0.5-1.7-0.4-1.7,0.4c0,0.8,0.8,1.8,1.8,2.4c1,0.5,1.7,0.4,1.6-0.4
			C455.8,243.8,455.1,242.8,454.1,242.2"/>
		<path id="XMLID_236_" class="st2" d="M449.8,239.7c-1.1-0.6-1.9-0.4-1.9,0.4c0,0.8,0.9,2,1.9,2.6c1.1,0.6,1.9,0.4,1.9-0.4
			C451.7,241.4,450.8,240.3,449.8,239.7"/>
		<path id="XMLID_235_" class="st2" d="M445.5,240.8c-1.1-0.6-2-0.4-2,0.5c0,0.9,0.8,2,2,2.7c1.1,0.6,2,0.4,2-0.5
			C447.5,242.5,446.6,241.4,445.5,240.8"/>
		<path id="XMLID_234_" class="st2" d="M439.6,258.4c-1.2-0.6-2.1-0.3-2.3,0.8c-0.1,1.1,0.8,2.4,1.9,3.1c1.2,0.6,2.2,0.2,2.2-0.9
			C441.6,260.3,440.8,259,439.6,258.4"/>
		<path id="XMLID_233_" class="st2" d="M440,253.7c-1.3-0.7-2.3-0.3-2.4,0.8c-0.1,1.1,0.8,2.6,2.1,3.2c1.3,0.7,2.3,0.3,2.4-0.9
			C442.1,255.8,441.2,254.4,440,253.7"/>
		<path id="XMLID_232_" class="st2" d="M440.3,249.4c-1.4-0.7-2.5-0.4-2.6,0.8c-0.1,1.2,0.9,2.7,2.3,3.4c1.4,0.7,2.5,0.4,2.6-0.8
			C442.6,251.6,441.6,250.1,440.3,249.4"/>
		<path id="XMLID_231_" class="st2" d="M440.6,245.3c-1.3-0.7-2.4-0.4-2.5,0.7c-0.1,1.1,0.9,2.5,2.2,3.2c1.4,0.7,2.4,0.4,2.5-0.7
			C442.8,247.4,441.9,246,440.6,245.3"/>
		<path id="XMLID_230_" class="st2" d="M440.8,241.8c-1.2-0.6-2.1-0.4-2.2,0.5c-0.1,0.9,0.8,2.1,2,2.8c1.2,0.6,2.1,0.4,2.2-0.6
			C442.8,243.6,441.9,242.4,440.8,241.8"/>
		<path id="XMLID_229_" class="st2" d="M441,238.2c-1.3-0.7-2.3-0.5-2.4,0.5c-0.1,1,0.9,2.2,2.2,2.9c1.3,0.7,2.3,0.4,2.4-0.5
			C443.2,240.1,442.3,238.9,441,238.2"/>
		<path id="XMLID_228_" class="st2" d="M441.2,234.9c-1.2-0.6-2.2-0.5-2.3,0.4c0,0.9,0.9,2.1,2.1,2.8c1.2,0.6,2.2,0.5,2.3-0.5
			C443.3,236.8,442.4,235.6,441.2,234.9"/>
		<path id="XMLID_227_" class="st2" d="M433.3,224.9c-0.9-0.4-1.6-0.4-1.7,0.2c-0.1,0.6,0.5,1.3,1.4,1.8c0.9,0.4,1.6,0.4,1.7-0.2
			C434.8,226.1,434.1,225.4,433.3,224.9"/>
		<path id="XMLID_226_" class="st2" d="M433.5,222.4c-0.8-0.4-1.4-0.4-1.5,0.1c-0.1,0.5,0.5,1.2,1.3,1.6c0.8,0.4,1.4,0.4,1.5-0.1
			C434.8,223.5,434.2,222.8,433.5,222.4"/>
		<path id="XMLID_225_" class="st2" d="M433.6,219.9c-0.7-0.4-1.2-0.3-1.3,0.1c0,0.4,0.4,1,1.1,1.4c0.7,0.4,1.2,0.3,1.3-0.1
			C434.8,220.9,434.3,220.3,433.6,219.9"/>
		<path id="XMLID_224_" class="st2" d="M433.7,217.6c-0.6-0.3-1.1-0.4-1.2,0c0,0.4,0.4,0.9,1,1.2c0.6,0.3,1.1,0.4,1.2,0
			C434.7,218.4,434.3,217.9,433.7,217.6"/>
		<path id="XMLID_223_" class="st2" d="M433.8,215.4c-0.6-0.3-1-0.4-1.1,0c0,0.4,0.4,0.8,1,1.1c0.6,0.3,1,0.4,1.1,0
			C434.8,216.2,434.4,215.7,433.8,215.4"/>
		<path id="XMLID_222_" class="st2" d="M433.9,213.2c-0.5-0.3-0.9-0.3-1,0c0,0.3,0.3,0.7,0.8,1c0.5,0.3,0.9,0.3,1,0
			C434.8,213.9,434.4,213.5,433.9,213.2"/>
		<path id="XMLID_221_" class="st2" d="M434,211.3c-0.5-0.3-0.8-0.3-0.9,0c0,0.3,0.3,0.6,0.8,0.9c0.5,0.3,0.8,0.3,0.9,0
			C434.8,211.9,434.5,211.6,434,211.3"/>
		<path id="XMLID_220_" class="st2" d="M434.1,209.3c-0.4-0.2-0.7-0.3-0.8,0c0,0.2,0.3,0.5,0.7,0.8c0.4,0.2,0.7,0.3,0.8,0
			C434.8,209.9,434.5,209.6,434.1,209.3"/>
		<path id="XMLID_219_" class="st2" d="M428.7,256.3c0.9,0.4,1.7,0.2,1.8-0.6c0.1-0.8-0.5-1.7-1.4-2.2c-0.9-0.4-1.7-0.2-1.8,0.6
			C427.2,254.9,427.8,255.8,428.7,256.3"/>
		<path id="XMLID_218_" class="st2" d="M427.9,261.4c0.9,0.4,1.6,0.1,1.7-0.7c0.1-0.8-0.5-1.7-1.3-2.2c-0.9-0.4-1.6-0.1-1.8,0.6
			C426.5,260,427,260.9,427.9,261.4"/>
		<path id="XMLID_217_" class="st2" d="M426.7,266.6c0.9,0.4,1.6,0.1,1.7-0.7c0.1-0.8-0.4-1.7-1.3-2.2c-0.8-0.4-1.6-0.1-1.7,0.7
			C425.3,265.2,425.8,266.1,426.7,266.6"/>
		<path id="XMLID_216_" class="st2" d="M425.6,272.2c0.8,0.4,1.5,0,1.6-0.7c0.1-0.8-0.4-1.7-1.2-2.1c-0.8-0.4-1.5-0.1-1.6,0.7
			C424.3,270.9,424.8,271.8,425.6,272.2"/>
		<path id="XMLID_215_" class="st2" d="M424.3,277.9c0.8,0.3,1.4,0,1.6-0.8c0.1-0.8-0.4-1.6-1.1-2c-0.7-0.3-1.4,0-1.6,0.8
			C423,276.6,423.5,277.5,424.3,277.9"/>
		<path id="XMLID_214_" class="st2" d="M422.7,284.6c0.7,0.3,1.3,0,1.5-0.8c0.1-0.8-0.3-1.6-1-1.9c-0.7-0.3-1.3,0-1.5,0.8
			C421.6,283.4,422,284.2,422.7,284.6"/>
		<path id="XMLID_213_" class="st2" d="M445.5,237.4c-1-0.6-1.8-0.4-1.9,0.4c0,0.8,0.8,1.8,1.8,2.4c1.1,0.6,1.9,0.4,1.9-0.4
			C447.3,239,446.5,238,445.5,237.4"/>
		<path id="XMLID_212_" class="st2" d="M445.2,244.5c-0.9-0.5-1.7-0.3-1.7,0.4c0,0.8,0.7,1.7,1.6,2.3c0.9,0.5,1.7,0.3,1.7-0.5
			C446.9,246,446.2,245,445.2,244.5"/>
		<path id="XMLID_211_" class="st2" d="M445.2,248.1c-1.1-0.6-1.9-0.3-2,0.6c0,0.9,0.8,2.1,1.8,2.7c1.1,0.6,1.9,0.3,2-0.6
			C447,249.9,446.2,248.7,445.2,248.1"/>
		<path id="XMLID_210_" class="st2" d="M444.6,261.3c-1-0.5-1.9-0.2-1.9,0.8c0,1,0.7,2.2,1.8,2.8c1.1,0.6,1.9,0.2,1.9-0.8
			C446.4,263,445.7,261.8,444.6,261.3"/>
		<path id="XMLID_209_" class="st2" d="M462,243.7c-0.9-0.5-1.5-0.4-1.4,0.4c0.1,0.7,0.8,1.7,1.7,2.2c0.9,0.5,1.5,0.4,1.4-0.4
			C463.6,245.1,462.9,244.2,462,243.7"/>
		<path id="XMLID_208_" class="st2" d="M449.3,281.1c-1-0.5-1.7-0.1-1.8,0.9c0,1.1,0.7,2.4,1.7,3c1,0.6,1.7,0.1,1.8-1
			C451,282.9,450.3,281.6,449.3,281.1"/>
		<path id="XMLID_207_" class="st2" d="M454.6,291c-0.9-0.6-1.6-0.1-1.6,1c0,1.2,0.7,2.5,1.6,3.1c0.9,0.6,1.6,0.1,1.6-1
			C456.2,292.9,455.5,291.6,454.6,291"/>
		<path id="XMLID_206_" class="st2" d="M444.1,271.9c-1.1-0.6-1.9-0.2-2,0.9c-0.1,1.1,0.7,2.4,1.8,3.1c1.1,0.6,1.9,0.2,2-1
			C445.9,273.8,445.2,272.5,444.1,271.9"/>
		<path id="XMLID_205_" class="st2" d="M439.2,263.7c-1-0.5-1.9-0.2-2,0.8c-0.1,1,0.7,2.3,1.7,2.8c1.1,0.5,1.9,0.2,2-0.9
			C441,265.5,440.2,264.3,439.2,263.7"/>
		<path id="XMLID_204_" class="st2" d="M434.4,255.8c-1.1-0.6-2.1-0.2-2.3,0.8c-0.1,1,0.7,2.3,1.8,2.9c1.2,0.6,2.1,0.2,2.3-0.8
			C436.4,257.6,435.6,256.3,434.4,255.8"/>
		<path id="XMLID_203_" class="st2" d="M444.8,256.8c-1-0.5-1.7-0.2-1.8,0.6c0,0.9,0.7,2,1.7,2.6c1,0.5,1.7,0.2,1.8-0.7
			C446.5,258.4,445.8,257.3,444.8,256.8"/>
		<path id="XMLID_202_" class="st2" d="M441.5,229.2c-0.9-0.5-1.6-0.4-1.7,0.2c0,0.6,0.7,1.5,1.6,2c0.9,0.5,1.6,0.4,1.7-0.2
			C443.1,230.5,442.4,229.7,441.5,229.2"/>
		<path id="XMLID_201_" class="st2" d="M458,241.5c-0.7-0.4-1.2-0.3-1.2,0.3c0,0.6,0.6,1.3,1.4,1.8c0.7,0.4,1.2,0.3,1.2-0.3
			C459.3,242.7,458.7,242,458,241.5"/>
		<path id="XMLID_200_" class="st2" d="M450,251.2c-0.8-0.4-1.4-0.3-1.5,0.5c0,0.7,0.6,1.6,1.4,2.1c0.8,0.4,1.4,0.2,1.5-0.5
			C451.4,252.5,450.8,251.6,450,251.2"/>
		<path id="XMLID_199_" class="st2" d="M449.6,269.4c-1-0.6-1.8-0.2-1.8,0.8c0,1.1,0.7,2.3,1.8,2.9c1,0.6,1.8,0.2,1.8-0.9
			C451.3,271.3,450.6,270,449.6,269.4"/>
		<path id="XMLID_198_" class="st2" d="M445,252.6c-0.9-0.5-1.7-0.3-1.8,0.6c0,0.8,0.7,1.9,1.6,2.4c1,0.5,1.7,0.3,1.7-0.6
			C446.6,254.1,445.9,253.1,445,252.6"/>
		<path id="XMLID_197_" class="st2" d="M454.7,258c-0.9-0.5-1.6-0.3-1.6,0.6c0,0.9,0.7,2,1.7,2.5c0.9,0.5,1.6,0.3,1.6-0.6
			C456.3,259.6,455.6,258.5,454.7,258"/>
		<path id="XMLID_196_" class="st2" d="M458.6,302.1c-0.7-0.5-1.3-0.1-1.3,0.9c0,1,0.6,2.3,1.3,2.8c0.7,0.5,1.3,0.1,1.3-0.9
			C459.9,303.9,459.3,302.7,458.6,302.1"/>
		<path id="XMLID_195_" class="st2" d="M454.3,245.9c-0.8-0.5-1.5-0.3-1.5,0.4c0,0.7,0.7,1.6,1.6,2.1c0.9,0.5,1.5,0.3,1.5-0.4
			C455.8,247.3,455.1,246.4,454.3,245.9"/>
		<path id="XMLID_194_" class="st2" d="M437.3,227.1c-0.8-0.4-1.5-0.4-1.6,0.2c0,0.5,0.6,1.3,1.4,1.8c0.8,0.4,1.5,0.4,1.6-0.2
			C438.7,228.2,438.1,227.5,437.3,227.1"/>
		<path id="XMLID_193_" class="st2" d="M445.6,228.8c-0.8-0.4-1.4-0.4-1.4,0.2c0,0.5,0.6,1.3,1.4,1.7c0.8,0.4,1.4,0.4,1.4-0.2
			C447,230,446.4,229.2,445.6,228.8"/>
		<path id="XMLID_192_" class="st2" d="M454,239.3c-0.7-0.4-1.1-0.3-1.1,0.2c0,0.5,0.5,1.2,1.2,1.6c0.7,0.4,1.1,0.3,1.1-0.3
			C455.2,240.4,454.7,239.7,454,239.3"/>
		<path id="XMLID_191_" class="st2" d="M449.8,255.3c-0.8-0.5-1.5-0.2-1.5,0.5c0,0.8,0.6,1.7,1.5,2.2c0.8,0.5,1.5,0.2,1.5-0.5
			C451.3,256.8,450.6,255.8,449.8,255.3"/>
		<path id="XMLID_190_" class="st2" d="M454.4,253.8c-0.7-0.4-1.3-0.2-1.3,0.4c0,0.7,0.6,1.5,1.3,1.9c0.7,0.4,1.3,0.2,1.3-0.4
			C455.7,255.1,455.1,254.2,454.4,253.8"/>
		<path id="XMLID_189_" class="st2" d="M459.1,260.8c-0.8-0.5-1.4-0.3-1.4,0.5c0,0.8,0.7,1.8,1.5,2.3c0.8,0.5,1.4,0.3,1.4-0.6
			C460.6,262.3,459.9,261.3,459.1,260.8"/>
		<path id="XMLID_188_" class="st2" d="M466.3,249.9c-0.6-0.4-1-0.2-1,0.3c0.1,0.5,0.6,1.3,1.2,1.7c0.6,0.4,1,0.2,1-0.3
			C467.5,251,466.9,250.3,466.3,249.9"/>
		<path id="XMLID_187_" class="st2" d="M445.6,226.3c-0.7-0.4-1.2-0.3-1.2,0.1c0,0.4,0.5,1.1,1.2,1.5c0.7,0.4,1.2,0.3,1.2-0.1
			C446.8,227.3,446.3,226.7,445.6,226.3"/>
		<path id="XMLID_186_" class="st2" d="M445.6,231.6c-0.7-0.4-1.3-0.3-1.3,0.2c0,0.5,0.6,1.2,1.3,1.6c0.7,0.4,1.3,0.3,1.3-0.2
			C446.8,232.7,446.3,232,445.6,231.6"/>
		<path id="XMLID_185_" class="st2" d="M459.4,295.4c-0.8-0.6-1.5-0.2-1.5,0.9c0,1.1,0.7,2.5,1.5,3.1c0.8,0.6,1.5,0.2,1.5-1
			C460.9,297.3,460.2,296,459.4,295.4"/>
		<path id="XMLID_184_" class="st2" d="M441.6,226.7c-0.7-0.4-1.3-0.3-1.3,0.1c0,0.5,0.5,1.1,1.2,1.5c0.7,0.4,1.3,0.3,1.3-0.2
			C442.9,227.8,442.3,227.1,441.6,226.7"/>
		<path id="XMLID_183_" class="st2" d="M449.8,247.3c-0.7-0.4-1.3-0.2-1.3,0.4c0,0.6,0.6,1.4,1.3,1.8c0.7,0.4,1.3,0.2,1.3-0.4
			C451,248.5,450.5,247.7,449.8,247.3"/>
		<path id="XMLID_182_" class="st2" d="M449.7,237.1c-0.6-0.3-1-0.2-1.1,0.2c0,0.4,0.5,1,1.1,1.4c0.6,0.3,1.1,0.2,1.1-0.2
			C450.8,238,450.3,237.4,449.7,237.1"/>
		<path id="XMLID_181_" class="st2" d="M449.7,264.6c-0.7-0.4-1.3-0.2-1.3,0.5c0,0.7,0.5,1.6,1.3,2c0.7,0.4,1.3,0.2,1.3-0.6
			C450.9,265.9,450.4,265,449.7,264.6"/>
		<path id="XMLID_180_" class="st2" d="M454.7,278.5c-0.8-0.5-1.4-0.2-1.5,0.8c0,0.9,0.6,2.1,1.5,2.6c0.8,0.5,1.5,0.2,1.5-0.8
			C456.1,280.2,455.5,279,454.7,278.5"/>
		<path id="XMLID_179_" class="st2" d="M445.5,234.9c-0.5-0.3-1-0.2-1,0.2c0,0.4,0.4,0.9,0.9,1.2c0.5,0.3,1,0.2,1-0.2
			C446.5,235.7,446.1,235.1,445.5,234.9"/>
		<path id="XMLID_178_" class="st2" d="M454.3,297.7c-0.6-0.4-1.2-0.1-1.2,0.8c0,0.9,0.5,1.9,1.1,2.3c0.7,0.4,1.2,0.1,1.2-0.8
			C455.4,299.1,454.9,298.1,454.3,297.7"/>
		<path id="XMLID_177_" class="st2" d="M458.5,248.6c-0.7-0.4-1.2-0.3-1.2,0.3c0,0.6,0.6,1.4,1.3,1.8c0.7,0.4,1.2,0.3,1.2-0.4
			C459.7,249.8,459.2,249,458.5,248.6"/>
		<path id="XMLID_176_" class="st2" d="M449.7,228.6c-0.6-0.3-1.1-0.3-1.1,0.1c0,0.4,0.5,1,1.1,1.4c0.6,0.3,1.1,0.3,1.1-0.1
			C450.8,229.6,450.3,229,449.7,228.6"/>
		<path id="XMLID_175_" class="st2" d="M474.2,251.7c-0.5-0.3-0.8-0.2-0.8,0.2c0.1,0.5,0.5,1.1,1,1.4c0.5,0.3,0.8,0.2,0.7-0.3
			C475.1,252.7,474.7,252.1,474.2,251.7"/>
		<path id="XMLID_174_" class="st2" d="M463.7,263.8c-0.7-0.4-1.2-0.2-1.2,0.5c0.1,0.7,0.6,1.7,1.4,2.2c0.7,0.5,1.2,0.2,1.2-0.5
			C465,265.2,464.4,264.3,463.7,263.8"/>
		<path id="XMLID_173_" class="st2" d="M461.5,309.4c-0.6-0.5-1-0.1-1,0.8c0,1,0.5,2.1,1.1,2.7c0.6,0.5,1,0.2,1-0.8
			C462.5,311,462.1,309.9,461.5,309.4"/>
		<path id="XMLID_172_" class="st2" d="M449.1,287.7c-0.7-0.4-1.3-0.1-1.3,0.8c0,0.9,0.5,1.9,1.2,2.3c0.7,0.4,1.3,0.1,1.3-0.8
			C450.3,289.1,449.8,288.1,449.1,287.7"/>
		<path id="XMLID_171_" class="st2" d="M458.9,256.8c-0.5-0.3-0.9-0.2-0.9,0.3c0,0.5,0.4,1.1,1,1.4c0.5,0.3,0.9,0.2,0.9-0.3
			C459.9,257.7,459.4,257.1,458.9,256.8"/>
		<path id="XMLID_170_" class="st2" d="M449.5,226.1c-0.5-0.3-0.9-0.3-0.9,0.1c0,0.4,0.4,0.8,1,1.1c0.5,0.3,0.9,0.3,0.9-0.1
			C450.4,226.9,450,226.4,449.5,226.1"/>
		<path id="XMLID_169_" class="st2" d="M453.2,228.4c-0.4-0.2-0.8-0.2-0.7,0.1c0,0.3,0.4,0.7,0.8,0.9c0.4,0.2,0.8,0.2,0.7-0.1
			C454,229,453.6,228.6,453.2,228.4"/>
		<path id="XMLID_168_" class="st2" d="M443.8,278.6c-0.6-0.3-1.2-0.1-1.2,0.6c0,0.7,0.4,1.5,1.1,1.9c0.7,0.3,1.2,0.1,1.2-0.6
			C444.9,279.8,444.5,279,443.8,278.6"/>
		<path id="XMLID_167_" class="st2" d="M438.6,269.8c-0.6-0.3-1.2-0.1-1.2,0.6c0,0.6,0.4,1.4,1,1.7c0.6,0.3,1.2,0.1,1.2-0.6
			C439.6,270.9,439.2,270.1,438.6,269.8"/>
		<path id="XMLID_166_" class="st2" d="M433.7,261.6c-0.6-0.3-1.2-0.1-1.2,0.5c-0.1,0.6,0.4,1.3,1,1.6c0.6,0.3,1.2,0.1,1.2-0.5
			C434.7,262.6,434.3,261.9,433.7,261.6"/>
		<path id="XMLID_165_" class="st2" d="M453,226c-0.5-0.3-0.8-0.3-0.8,0.1c0,0.3,0.4,0.7,0.9,1c0.5,0.3,0.8,0.3,0.8-0.1
			C453.8,226.6,453.4,226.2,453,226"/>
		<path id="XMLID_164_" class="st2" d="M455.9,226.1c-0.4-0.2-0.7-0.2-0.7,0.1c0,0.3,0.3,0.6,0.7,0.8c0.4,0.2,0.7,0.2,0.7-0.1
			C456.7,226.6,456.3,226.3,455.9,226.1"/>
		<path id="XMLID_163_" class="st2" d="M468.1,267.2c-0.4-0.3-0.8-0.2-0.7,0.3c0,0.5,0.4,1.1,0.9,1.5c0.5,0.3,0.8,0.2,0.7-0.3
			C469,268.2,468.6,267.5,468.1,267.2"/>
		<path id="XMLID_162_" class="st2" d="M464,268.4c-0.6-0.4-1-0.2-1,0.4c0,0.6,0.5,1.4,1.1,1.8c0.6,0.4,1,0.2,0.9-0.4
			C465,269.5,464.6,268.8,464,268.4"/>
		<path id="XMLID_161_" class="st2" d="M459.4,265.5c-0.5-0.3-0.9-0.2-0.9,0.4c0,0.6,0.4,1.3,1,1.6c0.5,0.3,0.9,0.2,0.9-0.4
			C460.3,266.5,459.9,265.8,459.4,265.5"/>
		<path id="XMLID_160_" class="st2" d="M454.6,262.7c-0.5-0.3-0.9-0.1-0.9,0.4c0,0.5,0.4,1.1,0.9,1.4c0.5,0.3,0.9,0.1,0.9-0.4
			C455.5,263.6,455.1,263,454.6,262.7"/>
		<path id="XMLID_159_" class="st2" d="M449.8,259.9c-0.5-0.3-0.9-0.1-0.9,0.4c0,0.5,0.4,1.1,0.9,1.4c0.5,0.3,0.9,0.1,0.9-0.4
			C450.7,260.7,450.3,260.2,449.8,259.9"/>
		<path id="XMLID_158_" class="st2" d="M468.4,271.6c-0.5-0.3-0.8-0.2-0.7,0.4c0,0.5,0.4,1.2,0.9,1.5c0.5,0.3,0.8,0.2,0.7-0.4
			C469.2,272.6,468.8,271.9,468.4,271.6"/>
		<path id="XMLID_157_" class="st2" d="M473,275c-0.4-0.3-0.7-0.2-0.6,0.3c0,0.5,0.4,1.1,0.8,1.5c0.4,0.3,0.7,0.2,0.6-0.3
			C473.7,276,473.4,275.3,473,275"/>
		<path id="XMLID_156_" class="st2" d="M449.6,231.3c-0.5-0.3-0.9-0.3-0.9,0.1c0,0.4,0.4,0.8,0.9,1.1c0.5,0.3,0.9,0.3,0.9-0.1
			C450.5,232.1,450.1,231.6,449.6,231.3"/>
		<path id="XMLID_155_" class="st2" d="M419.2,243.5c-1.2-0.6-2.3-0.3-2.5,0.6c-0.2,1,0.5,2.2,1.8,2.8c1.2,0.6,2.3,0.3,2.5-0.7
			C421.2,245.2,420.4,244.1,419.2,243.5"/>
		<path id="XMLID_154_" class="st2" d="M414.1,240.6c-1.5-0.7-2.9-0.4-3.3,0.8c-0.3,1.2,0.6,2.7,2.2,3.4c1.6,0.7,3,0.3,3.3-0.9
			C416.5,242.7,415.6,241.3,414.1,240.6"/>
		<path id="XMLID_153_" class="st2" d="M379.4,204c0.8,0.3,1.2,0.8,0.9,1.2c-0.3,0.4-1.2,0.5-2,0.2c-0.8-0.3-1.2-0.8-0.9-1.2
			C377.7,203.8,378.6,203.7,379.4,204"/>
		<path id="XMLID_152_" class="st2" d="M385.1,205.7c1,0.4,1.5,1,1.2,1.5c-0.3,0.5-1.4,0.6-2.4,0.2c-1-0.4-1.5-1-1.2-1.5
			C383.1,205.5,384.1,205.4,385.1,205.7"/>
		<path id="XMLID_151_" class="st2" d="M383,251c0.9,0.4,1.4,1.2,1,2c-0.4,0.7-1.3,1.1-2.3,0.7c-0.9-0.4-1.4-1.2-1-2
			C381,251,382,250.7,383,251"/>
		<path id="XMLID_150_" class="st2" d="M391.1,246.9c1.2,0.5,1.9,1.7,1.5,2.7c-0.4,1-1.7,1.4-3,0.9c-1.3-0.5-1.9-1.7-1.5-2.7
			C388.6,246.8,389.9,246.4,391.1,246.9"/>
		<path id="XMLID_149_" class="st2" d="M399.4,244.5c1.3,0.6,2,1.8,1.7,2.8c-0.4,1-1.7,1.4-3,0.9c-1.3-0.6-2.1-1.8-1.7-2.9
			C396.7,244.3,398.1,244,399.4,244.5"/>
		<path id="XMLID_148_" class="st2" d="M414.7,218.3c1.1,0.5,1.8,1.5,1.6,2.1c-0.2,0.7-1.2,0.8-2.4,0.2c-1.1-0.6-1.8-1.5-1.6-2.2
			C412.6,217.8,413.6,217.7,414.7,218.3"/>
		<path id="XMLID_147_" class="st2" d="M388.7,210.4c1,0.4,1.6,1.1,1.3,1.7c-0.3,0.5-1.4,0.7-2.5,0.3c-1.1-0.4-1.6-1.1-1.3-1.7
			C386.6,210.1,387.7,210,388.7,210.4"/>
		<path id="XMLID_146_" class="st2" d="M394,212.4c1.1,0.4,1.6,1.2,1.3,1.8c-0.3,0.6-1.4,0.7-2.5,0.3c-1.1-0.4-1.7-1.2-1.3-1.8
			C391.9,212.1,392.9,212,394,212.4"/>
		<path id="XMLID_145_" class="st2" d="M402.8,219.5c1.1,0.5,1.8,1.5,1.6,2.2c-0.3,0.7-1.4,0.8-2.6,0.3c-1.2-0.5-1.9-1.5-1.6-2.2
			C400.5,219.2,401.6,219,402.8,219.5"/>
		<path id="XMLID_144_" class="st2" d="M399.1,214.4c1.1,0.5,1.8,1.4,1.5,2c-0.3,0.6-1.4,0.8-2.6,0.3c-1.2-0.5-1.8-1.4-1.5-2
			C396.9,214,398,213.9,399.1,214.4"/>
		<path id="XMLID_143_" class="st2" d="M404.2,216.6c1.2,0.6,1.9,1.5,1.6,2.2c-0.3,0.7-1.5,0.8-2.7,0.3c-1.2-0.6-1.9-1.5-1.6-2.2
			C401.9,216.2,403,216.1,404.2,216.6"/>
		<path id="XMLID_142_" class="st2" d="M407.9,221.7c1.2,0.6,2,1.6,1.7,2.4c-0.3,0.8-1.5,0.9-2.8,0.4c-1.3-0.6-2-1.7-1.7-2.4
			C405.4,221.3,406.6,221.1,407.9,221.7"/>
		<path id="XMLID_141_" class="st2" d="M407,242.4c1.3,0.6,2,1.8,1.7,2.8c-0.3,1-1.6,1.4-2.9,0.8c-1.3-0.6-2.1-1.8-1.7-2.9
			C404.4,242.2,405.7,241.9,407,242.4"/>
		<path id="XMLID_140_" class="st2" d="M408.3,238.2c1.4,0.6,2.2,1.9,1.9,3c-0.3,1-1.7,1.4-3.1,0.8c-1.4-0.7-2.2-2-1.9-3
			C405.6,237.9,406.9,237.6,408.3,238.2"/>
		<path id="XMLID_139_" class="st2" d="M409.5,234.2c1.5,0.7,2.4,2,2.1,3.1c-0.3,1.1-1.8,1.4-3.3,0.7c-1.5-0.7-2.4-2.1-2.1-3.2
			C406.6,233.8,408,233.5,409.5,234.2"/>
		<path id="XMLID_138_" class="st2" d="M410.7,230.4c1.4,0.7,2.3,2,2,3c-0.3,1-1.7,1.3-3.2,0.6c-1.5-0.7-2.4-2-2-3
			C407.9,230,409.2,229.8,410.7,230.4"/>
		<path id="XMLID_137_" class="st2" d="M411.7,227.2c1.3,0.6,2,1.7,1.8,2.6c-0.3,0.8-1.5,1.1-2.8,0.5c-1.3-0.6-2.1-1.7-1.8-2.6
			C409.3,226.8,410.4,226.6,411.7,227.2"/>
		<path id="XMLID_136_" class="st2" d="M412.9,223.9c1.4,0.7,2.2,1.8,2,2.7c-0.3,0.9-1.6,1.1-3,0.4c-1.4-0.7-2.2-1.9-2-2.8
			C410.2,223.4,411.5,223.3,412.9,223.9"/>
		<path id="XMLID_135_" class="st2" d="M413.9,220.9c1.3,0.7,2.1,1.8,1.9,2.6c-0.3,0.8-1.5,1-2.8,0.3c-1.4-0.7-2.2-1.8-1.9-2.6
			C411.3,220.4,412.6,220.3,413.9,220.9"/>
		<path id="XMLID_122_" class="st2" d="M424.4,220.2c0.9,0.5,1.5,1.2,1.4,1.8c-0.1,0.5-0.9,0.6-1.8,0.2c-0.9-0.5-1.5-1.2-1.4-1.8
			C422.7,219.9,423.5,219.8,424.4,220.2"/>
		<path id="XMLID_121_" class="st2" d="M425.1,217.8c0.8,0.4,1.3,1.1,1.3,1.6c-0.1,0.5-0.8,0.5-1.6,0.1c-0.8-0.4-1.4-1.1-1.3-1.6
			C423.6,217.5,424.3,217.4,425.1,217.8"/>
		<path id="XMLID_120_" class="st2" d="M425.8,215.6c0.7,0.4,1.2,1,1.1,1.4c-0.1,0.4-0.7,0.4-1.4,0.1c-0.7-0.4-1.2-1-1.1-1.4
			C424.5,215.3,425.1,215.2,425.8,215.6"/>
		<path id="XMLID_119_" class="st2" d="M426.4,213.4c0.6,0.3,1.1,0.8,1,1.2c-0.1,0.4-0.6,0.4-1.3,0c-0.6-0.3-1.1-0.8-1-1.2
			C425.2,213.1,425.7,213.1,426.4,213.4"/>
		<path id="XMLID_118_" class="st2" d="M427,211.5c0.6,0.3,1,0.7,0.9,1.1c-0.1,0.4-0.6,0.3-1.2,0c-0.6-0.3-1-0.8-0.9-1.1
			C425.9,211.1,426.4,211.2,427,211.5"/>
		<path id="XMLID_117_" class="st2" d="M427.5,209.6c0.5,0.3,0.9,0.7,0.8,1c-0.1,0.3-0.5,0.3-1,0c-0.5-0.3-0.9-0.7-0.8-1
			C426.6,209.3,427,209.3,427.5,209.6"/>
		<path id="XMLID_116_" class="st2" d="M428,208c0.5,0.3,0.8,0.6,0.8,0.9c-0.1,0.3-0.5,0.2-0.9,0c-0.5-0.3-0.8-0.6-0.8-0.9
			C427.1,207.7,427.5,207.8,428,208"/>
		<path id="XMLID_115_" class="st2" d="M428.5,206.4c0.4,0.2,0.7,0.5,0.7,0.8c-0.1,0.2-0.4,0.2-0.8-0.1c-0.4-0.2-0.7-0.5-0.7-0.8
			C427.7,206.2,428,206.2,428.5,206.4"/>
		<path id="XMLID_114_" class="st2" d="M417.5,250.8c-0.9-0.5-1.5-1.4-1.3-2.2c0.2-0.8,1.1-1,2-0.6c0.9,0.5,1.5,1.4,1.3,2.1
			C419.3,251,418.4,251.3,417.5,250.8"/>
		<path id="XMLID_113_" class="st2" d="M416.5,255.8c-0.9-0.4-1.4-1.3-1.3-2.1c0.2-0.8,1-1,1.9-0.6c0.9,0.4,1.4,1.3,1.3,2.1
			C418.2,255.9,417.4,256.2,416.5,255.8"/>
		<path id="XMLID_112_" class="st2" d="M415.5,261c-0.9-0.4-1.4-1.4-1.2-2.2c0.2-0.8,1-1.1,1.9-0.7c0.9,0.4,1.4,1.3,1.2,2.1
			C417.3,261.1,416.4,261.4,415.5,261"/>
		<path id="XMLID_111_" class="st2" d="M414.7,266.7c-0.8-0.4-1.3-1.3-1.1-2.1c0.2-0.8,1-1.1,1.8-0.7c0.8,0.4,1.3,1.3,1.1,2
			C416.3,266.7,415.5,267,414.7,266.7"/>
		<path id="XMLID_109_" class="st2" d="M413.5,272.8c-0.8-0.4-1.2-1.2-1-2c0.2-0.8,0.9-1.1,1.7-0.7c0.8,0.4,1.2,1.2,1.1,2
			C415,272.8,414.3,273.1,413.5,272.8"/>
		<path id="XMLID_108_" class="st2" d="M412.3,279.8c-0.7-0.3-1.1-1.2-1-1.9c0.2-0.8,0.9-1.1,1.6-0.8c0.7,0.3,1.1,1.1,1,1.9
			C413.8,279.8,413.1,280.1,412.3,279.8"/>
		<path id="XMLID_107_" class="st2" d="M409.1,218.9c1.1,0.5,1.8,1.5,1.6,2.2c-0.3,0.7-1.4,0.8-2.5,0.3c-1.2-0.6-1.9-1.5-1.6-2.2
			C406.9,218.5,408,218.4,409.1,218.9"/>
		<path id="XMLID_106_" class="st2" d="M406.5,225.1c1,0.5,1.7,1.4,1.4,2c-0.3,0.7-1.3,0.8-2.3,0.4c-1.1-0.5-1.7-1.4-1.4-2.1
			C404.5,224.7,405.5,224.6,406.5,225.1"/>
		<path id="XMLID_105_" class="st2" d="M405.3,228.3c1.2,0.6,1.9,1.6,1.6,2.4c-0.3,0.8-1.5,1-2.7,0.5c-1.2-0.6-1.9-1.6-1.6-2.4
			C403,228,404.1,227.8,405.3,228.3"/>
		<path id="XMLID_104_" class="st2" d="M401,240c1.2,0.5,1.8,1.6,1.5,2.5c-0.3,0.9-1.5,1.2-2.7,0.7c-1.2-0.5-1.9-1.6-1.5-2.5
			C398.6,239.8,399.8,239.5,401,240"/>
		<path id="XMLID_103_" class="st2" d="M390.4,207.6c1.1,0.5,1.7,1.2,1.4,1.8c-0.4,0.6-1.5,0.6-2.6,0.2c-1.1-0.5-1.7-1.2-1.4-1.8
			C388.2,207.2,389.3,207.1,390.4,207.6"/>
		<path id="XMLID_102_" class="st2" d="M389,252.4c1.2,0.5,1.7,1.6,1.4,2.6c-0.4,1-1.6,1.4-2.8,0.9c-1.2-0.5-1.8-1.6-1.4-2.6
			C386.6,252.3,387.8,252,389,252.4"/>
		<path id="XMLID_101_" class="st2" d="M380.8,255.7c1.2,0.5,1.7,1.6,1.3,2.6c-0.5,1-1.8,1.5-3,1c-1.2-0.5-1.7-1.6-1.3-2.6
			C378.3,255.7,379.6,255.3,380.8,255.7"/>
		<path id="XMLID_100_" class="st2" d="M397.5,249.6c1.2,0.5,1.9,1.7,1.5,2.7c-0.4,1-1.6,1.4-2.9,0.9c-1.2-0.5-1.9-1.7-1.5-2.8
			C395,249.5,396.3,249.1,397.5,249.6"/>
		<path id="XMLID_99_" class="st2" d="M405.4,247.4c1.1,0.5,1.8,1.6,1.5,2.6c-0.3,0.9-1.4,1.3-2.6,0.8c-1.2-0.5-1.8-1.7-1.5-2.6
			C403.1,247.2,404.2,246.9,405.4,247.4"/>
		<path id="XMLID_98_" class="st2" d="M412.7,245.1c1.2,0.6,1.9,1.8,1.7,2.7c-0.3,1-1.4,1.3-2.7,0.8c-1.2-0.6-2-1.8-1.7-2.8
			C410.3,244.9,411.5,244.6,412.7,245.1"/>
		<path id="XMLID_97_" class="st2" d="M402.5,235.9c1.1,0.5,1.7,1.5,1.5,2.3c-0.3,0.8-1.4,1-2.5,0.6c-1.1-0.5-1.7-1.5-1.5-2.3
			C400.3,235.6,401.4,235.4,402.5,235.9"/>
		<path id="XMLID_96_" class="st2" d="M415.6,215.7c1,0.5,1.6,1.3,1.4,1.9c-0.2,0.6-1.1,0.6-2.1,0.1c-1-0.5-1.6-1.3-1.4-1.9
			C413.7,215.3,414.6,215.2,415.6,215.7"/>
		<path id="XMLID_95_" class="st2" d="M395.6,210c0.9,0.4,1.3,1,1.1,1.5c-0.3,0.5-1.1,0.5-2,0.1c-0.9-0.4-1.4-1-1.1-1.5
			C393.8,209.6,394.7,209.6,395.6,210"/>
		<path id="XMLID_94_" class="st2" d="M399.9,226.3c0.9,0.4,1.5,1.2,1.2,1.8c-0.3,0.6-1.2,0.8-2.2,0.4c-1-0.4-1.5-1.2-1.3-1.8
			C398,226,399,225.8,399.9,226.3"/>
		<path id="XMLID_93_" class="st2" d="M393.1,242c1.2,0.5,1.8,1.6,1.5,2.5c-0.4,0.9-1.6,1.3-2.9,0.8c-1.2-0.5-1.9-1.6-1.5-2.6
			C390.7,241.9,391.9,241.5,393.1,242"/>
		<path id="XMLID_92_" class="st2" d="M403.8,232.2c1.1,0.5,1.7,1.4,1.4,2.2c-0.3,0.7-1.3,1-2.4,0.5c-1.1-0.5-1.7-1.4-1.4-2.2
			C401.7,232,402.8,231.8,403.8,232.2"/>
		<path id="XMLID_91_" class="st2" d="M392.7,227.4c1.1,0.5,1.7,1.4,1.4,2.1c-0.4,0.7-1.5,0.9-2.6,0.5c-1.1-0.5-1.7-1.4-1.4-2.1
			C390.5,227.2,391.6,227,392.7,227.4"/>
		<path id="XMLID_90_" class="st2" d="M373.6,259.2c0.8,0.3,1.2,1.1,0.8,1.8c-0.4,0.7-1.3,1.1-2.2,0.8c-0.8-0.3-1.2-1.1-0.8-1.8
			C371.9,259.3,372.8,258.9,373.6,259.2"/>
		<path id="XMLID_89_" class="st2" d="M397.5,217.4c1,0.4,1.6,1.2,1.3,1.8c-0.3,0.6-1.3,0.7-2.3,0.3c-1-0.4-1.6-1.2-1.3-1.8
			C395.5,217.1,396.5,217,397.5,217.4"/>
		<path id="XMLID_88_" class="st2" d="M420,218.1c0.9,0.4,1.4,1.2,1.3,1.7c-0.1,0.5-0.9,0.6-1.8,0.1c-0.9-0.4-1.4-1.2-1.3-1.7
			C418.4,217.7,419.2,217.6,420,218.1"/>
		<path id="XMLID_87_" class="st2" d="M407.5,209.5c0.7,0.3,1.1,0.7,1,1.1c-0.1,0.3-0.7,0.4-1.4,0.2c-0.7-0.3-1.1-0.7-1-1.1
			C406.2,209.3,406.8,209.3,407.5,209.5"/>
		<path id="XMLID_86_" class="st2" d="M400.4,212c0.8,0.3,1.2,0.9,1,1.4c-0.2,0.4-1,0.5-1.8,0.1c-0.8-0.4-1.2-0.9-1-1.4
			C398.8,211.7,399.6,211.6,400.4,212"/>
		<path id="XMLID_85_" class="st2" d="M398.3,230c1,0.4,1.5,1.2,1.3,1.9c-0.3,0.7-1.3,0.9-2.3,0.4c-1-0.4-1.6-1.3-1.3-1.9
			C396.3,229.7,397.3,229.6,398.3,230"/>
		<path id="XMLID_84_" class="st2" d="M394.4,224.1c0.9,0.4,1.3,1.1,1.1,1.6c-0.3,0.5-1.1,0.7-2,0.3c-0.9-0.4-1.4-1.1-1.1-1.6
			C392.7,223.9,393.6,223.8,394.4,224.1"/>
		<path id="XMLID_83_" class="st2" d="M386.9,225.4c1,0.4,1.6,1.2,1.2,1.8c-0.4,0.6-1.4,0.8-2.5,0.5c-1-0.4-1.6-1.2-1.2-1.9
			C384.8,225.2,385.9,225,386.9,225.4"/>
		<path id="XMLID_82_" class="st2" d="M383.3,208.7c0.8,0.3,1.2,0.8,1,1.2c-0.3,0.4-1.1,0.5-2,0.2c-0.8-0.3-1.3-0.8-1-1.3
			C381.7,208.6,382.5,208.4,383.3,208.7"/>
		<path id="XMLID_81_" class="st2" d="M408.6,207.3c0.7,0.3,1.2,0.8,1.1,1.1c-0.1,0.4-0.7,0.4-1.5,0.2c-0.7-0.3-1.2-0.8-1.1-1.2
			C407.2,207,407.8,207,408.6,207.3"/>
		<path id="XMLID_80_" class="st2" d="M411.1,213.6c0.9,0.4,1.4,1.1,1.2,1.6c-0.2,0.5-1,0.5-1.9,0.1c-0.9-0.4-1.4-1.1-1.2-1.6
			C409.4,213.3,410.2,213.2,411.1,213.6"/>
		<path id="XMLID_79_" class="st2" d="M412.1,211.2c0.8,0.4,1.3,1,1.1,1.4c-0.1,0.4-0.8,0.5-1.6,0.1c-0.8-0.4-1.3-1-1.1-1.5
			C410.6,210.9,411.3,210.8,412.1,211.2"/>
		<path id="XMLID_78_" class="st2" d="M401.3,223.1c0.8,0.4,1.3,1,1.1,1.6c-0.2,0.5-1,0.6-1.9,0.3c-0.8-0.4-1.3-1.1-1.1-1.6
			C399.6,222.9,400.4,222.8,401.3,223.1"/>
		<path id="XMLID_77_" class="st2" d="M405.3,214.3c0.7,0.3,1.1,0.9,0.9,1.2c-0.2,0.4-0.8,0.4-1.5,0.1c-0.7-0.3-1.1-0.9-0.9-1.2
			C404,214,404.6,214,405.3,214.3"/>
		<path id="XMLID_76_" class="st2" d="M394.9,237.9c0.8,0.4,1.3,1.1,1.1,1.7c-0.3,0.6-1.1,0.8-2,0.5c-0.9-0.4-1.3-1.1-1.1-1.7
			C393.2,237.8,394,237.6,394.9,237.9"/>
		<path id="XMLID_75_" class="st2" d="M409.9,216.5c0.6,0.3,1,0.8,0.9,1.1c-0.1,0.3-0.7,0.4-1.3,0.1c-0.6-0.3-1-0.8-0.9-1.1
			C408.8,216.3,409.3,216.3,409.9,216.5"/>
		<path id="XMLID_74_" class="st2" d="M416.2,213.4c0.7,0.4,1.1,0.9,1,1.3c-0.1,0.4-0.7,0.4-1.4,0.1c-0.7-0.4-1.1-0.9-1-1.3
			C414.9,213.1,415.5,213.1,416.2,213.4"/>
		<path id="XMLID_73_" class="st2" d="M392.2,215.4c0.8,0.3,1.3,1,1.1,1.5c-0.3,0.5-1.1,0.6-2,0.3c-0.9-0.3-1.3-1-1.1-1.5
			C390.4,215.2,391.3,215.1,392.2,215.4"/>
		<path id="XMLID_72_" class="st2" d="M373.7,202.1c0.7,0.2,1,0.6,0.7,0.9c-0.3,0.3-1,0.4-1.7,0.2c-0.7-0.2-1-0.6-0.7-0.9
			C372.3,202,373.1,201.9,373.7,202.1"/>
		<path id="XMLID_71_" class="st2" d="M380.9,223.3c1,0.3,1.4,1,1.1,1.6c-0.4,0.6-1.4,0.8-2.4,0.4c-1-0.3-1.5-1-1.1-1.6
			C378.9,223.2,379.9,223,380.9,223.3"/>
		<path id="XMLID_70_" class="st2" d="M371.6,264.6c0.8,0.3,1.1,1,0.7,1.7c-0.4,0.7-1.3,1-2,0.8c-0.8-0.3-1.1-1.1-0.7-1.8
			C369.9,264.6,370.8,264.3,371.6,264.6"/>
		<path id="XMLID_69_" class="st2" d="M365.6,267.7c0.7,0.2,0.9,0.9,0.6,1.5c-0.4,0.6-1.1,0.9-1.8,0.7c-0.7-0.2-1-0.9-0.6-1.5
			C364.1,267.8,364.9,267.5,365.6,267.7"/>
		<path id="XMLID_68_" class="st2" d="M386.8,257.7c0.9,0.4,1.3,1.2,1,2c-0.3,0.8-1.3,1.1-2.2,0.8c-0.9-0.4-1.3-1.2-1-2
			C385,257.7,386,257.4,386.8,257.7"/>
		<path id="XMLID_67_" class="st2" d="M378.6,261.2c0.9,0.4,1.3,1.2,1,2c-0.3,0.8-1.3,1.1-2.2,0.8c-0.9-0.4-1.3-1.2-1-2
			C376.8,261.2,377.7,260.9,378.6,261.2"/>
		<path id="XMLID_66_" class="st2" d="M388.7,222.1c0.6,0.3,1,0.8,0.8,1.1c-0.2,0.4-0.9,0.5-1.5,0.3c-0.7-0.3-1-0.8-0.8-1.2
			C387.4,222,388.1,221.9,388.7,222.1"/>
		<path id="XMLID_65_" class="st2" d="M405.6,203.9c0.6,0.2,0.9,0.6,0.8,0.9c-0.1,0.3-0.6,0.3-1.2,0.1c-0.6-0.2-0.9-0.6-0.8-0.9
			C404.6,203.7,405.1,203.7,405.6,203.9"/>
		<path id="XMLID_64_" class="st2" d="M395.5,255c0.7,0.3,1.1,1.1,0.9,1.7c-0.3,0.6-1,0.9-1.8,0.6c-0.8-0.3-1.1-1.1-0.9-1.7
			C394,255,394.8,254.7,395.5,255"/>
		<path id="XMLID_63_" class="st2" d="M403.6,252.3c0.7,0.3,1.1,1,0.9,1.6c-0.2,0.6-0.9,0.8-1.6,0.5c-0.7-0.3-1.1-1-0.9-1.6
			C402.2,252.2,402.9,252,403.6,252.3"/>
		<path id="XMLID_62_" class="st2" d="M411.1,250.6c0.7,0.3,1.1,1,0.9,1.5c-0.2,0.6-0.8,0.8-1.5,0.5c-0.7-0.3-1.1-1-0.9-1.6
			C409.8,250.5,410.5,250.3,411.1,250.6"/>
		<path id="XMLID_61_" class="st2" d="M374.4,221.6c0.6,0.2,1,0.6,0.7,1c-0.3,0.4-0.9,0.5-1.6,0.3c-0.7-0.2-1-0.6-0.7-1
			C373.1,221.6,373.8,221.4,374.4,221.6"/>
		<path id="XMLID_60_" class="st2" d="M378.7,226.3c0.8,0.3,1.2,0.8,0.9,1.3c-0.3,0.5-1.1,0.7-1.9,0.4c-0.8-0.3-1.2-0.8-0.9-1.3
			C377.1,226.2,377.9,226.1,378.7,226.3"/>
		<path id="XMLID_59_" class="st2" d="M384.8,229c0.7,0.3,1,0.8,0.8,1.3c-0.2,0.4-1,0.6-1.7,0.3c-0.7-0.3-1.1-0.8-0.8-1.3
			C383.4,228.9,384.1,228.8,384.8,229"/>
		<path id="XMLID_58_" class="st2" d="M390.8,231.4c0.6,0.3,0.9,0.8,0.7,1.2c-0.2,0.4-0.8,0.5-1.4,0.3c-0.6-0.3-0.9-0.8-0.8-1.2
			C389.6,231.3,390.2,231.2,390.8,231.4"/>
		<path id="XMLID_57_" class="st2" d="M396.6,233.9c0.6,0.3,0.9,0.8,0.8,1.2c-0.2,0.4-0.8,0.5-1.4,0.3c-0.6-0.3-0.9-0.8-0.8-1.2
			C395.4,233.8,396,233.6,396.6,233.9"/>
		<path id="XMLID_56_" class="st2" d="M409.6,205.4c0.5,0.2,0.9,0.6,0.8,0.9c-0.1,0.3-0.5,0.3-1.1,0.1c-0.5-0.2-0.9-0.6-0.8-0.9
			C408.6,205.2,409,205.2,409.6,205.4"/>
		<path id="XMLID_55_" class="st2" d="M406.7,202.1c0.5,0.2,0.8,0.5,0.7,0.8c-0.1,0.3-0.5,0.3-1,0.1c-0.5-0.2-0.8-0.5-0.7-0.8
			C405.8,201.9,406.3,201.9,406.7,202.1"/>
		<path id="XMLID_54_" class="st2" d="M403.8,199.3c0.4,0.2,0.7,0.5,0.7,0.7c-0.1,0.2-0.4,0.3-0.9,0.1c-0.4-0.2-0.7-0.4-0.7-0.7
			C402.9,199.1,403.3,199.1,403.8,199.3"/>
		<path id="XMLID_53_" class="st2" d="M412.9,209.3c0.6,0.3,0.9,0.7,0.8,1.1c-0.1,0.3-0.6,0.3-1.2,0c-0.6-0.3-0.9-0.7-0.9-1.1
			C411.8,209,412.3,209,412.9,209.3"/>
		<path id="XMLID_52_" class="st2" d="M372.3,224.5c0.7,0.2,1,0.7,0.7,1.1c-0.3,0.4-1,0.5-1.7,0.3c-0.7-0.2-1-0.7-0.7-1.1
			C371,224.4,371.7,224.3,372.3,224.5"/>
		<path id="XMLID_51_" class="st2" d="M366.4,222.9c0.6,0.2,0.9,0.6,0.7,0.9c-0.3,0.4-1,0.5-1.6,0.4c-0.6-0.2-0.9-0.6-0.7-0.9
			C365.1,222.9,365.8,222.7,366.4,222.9"/>
		<path class="st2" d="M416.8,220.7c-0.2,0.7,0.4,1.6,1.4,2.3c-1.2-0.4-2.2-0.2-2.5,0.6c-0.2,0.7,0.3,1.6,1.1,2.3
			c-1-0.2-1.8,0.1-2.1,0.8c-0.2,0.8,0.4,1.9,1.6,2.7c-1.3-0.4-2.3-0.1-2.6,0.8c-0.2,0.7,0.2,1.7,1,2.4c-1-0.1-1.8,0.2-2.1,1
			c-0.2,0.9,0.3,1.9,1.3,2.7c-1.2-0.2-2.1,0.2-2.4,1.1c-0.3,1.2,0.7,2.8,2.3,3.6c1.4,0.6,2.6,0.5,3.2-0.2c0.2,1.1,1.1,2.2,2.4,2.9
			c1.1,0.5,2.2,0.5,2.8,0c0.3,1,1.2,1.9,2.3,2.5c1.1,0.5,2.1,0.5,2.7,0c0.4,1,1.2,1.9,2.3,2.5c1.1,0.6,2.1,0.5,2.7,0
			c0.4,1,1.2,2,2.3,2.6c1.6,0.8,2.8,0.4,3-0.9c0.1-1-0.5-2.1-1.5-3c1,0.2,1.8-0.2,1.9-1.1c0.1-0.8-0.4-1.8-1.3-2.6
			c0.9,0.1,1.5-0.3,1.6-1.1c0.1-1-0.7-2.1-1.8-2.9c1.2,0.4,2,0.1,2.1-0.8c0-0.8-0.5-1.7-1.4-2.5c0.9,0.2,1.5-0.1,1.6-0.8
			c0-0.8-0.7-1.9-1.8-2.7c1,0.4,1.7,0.1,1.8-0.6c0-0.8-0.8-1.9-2-2.6c-1-0.5-1.9-0.5-2.2,0c-0.2-0.8-0.9-1.7-2-2.2
			c-1-0.5-1.9-0.5-2.2-0.1c-0.2-0.8-1-1.8-2.1-2.4c-1.1-0.6-2.1-0.6-2.6,0c-0.2-0.7-0.9-1.6-1.9-2.1c-1.2-0.6-2.3-0.6-2.5,0.2h0
			c0.2-0.8-0.7-1.8-2-2.5C418.2,219.8,417.1,219.9,416.8,220.7 M433,244.3c0.6,0.3,1,0.9,1,1.4c-0.1,0.5-0.6,0.6-1.2,0.3
			c-0.6-0.3-1-0.9-1-1.4C431.9,244.1,432.4,244,433,244.3 M428.2,242c0.5,0.3,0.9,0.8,0.9,1.2c-0.1,0.4-0.6,0.6-1.1,0.3
			c-0.6-0.3-0.9-0.8-0.9-1.3C427.1,241.8,427.6,241.7,428.2,242 M423.3,239.6c0.6,0.3,0.9,0.8,0.8,1.2c-0.1,0.4-0.6,0.5-1.2,0.3
			c-0.6-0.3-0.9-0.8-0.8-1.2C422.2,239.4,422.7,239.3,423.3,239.6 M418.9,238.2c-0.1,0.5-0.7,0.6-1.3,0.3c-0.6-0.3-1.1-0.9-0.9-1.4
			c0.1-0.5,0.7-0.6,1.3-0.3C418.6,237.2,419,237.8,418.9,238.2 M433.6,240.9c0.5,0.3,0.9,0.8,0.9,1.2c-0.1,0.4-0.5,0.5-1,0.2
			c-0.5-0.3-0.9-0.8-0.9-1.2C432.6,240.7,433.1,240.6,433.6,240.9 M418.8,233.5c0.6,0.3,0.9,0.8,0.8,1.2c-0.1,0.4-0.6,0.5-1.2,0.2
			c-0.6-0.3-0.9-0.8-0.8-1.2C417.8,233.3,418.3,233.2,418.8,233.5 M434,237.3c0.5,0.3,0.9,0.8,0.8,1.2c0,0.4-0.5,0.5-1,0.2
			c-0.5-0.3-0.9-0.8-0.8-1.2C433.1,237.2,433.5,237.1,434,237.3 M419.7,230.1c0.5,0.3,0.9,0.8,0.8,1.1c-0.1,0.4-0.6,0.4-1.1,0.2
			c-0.5-0.3-0.9-0.8-0.8-1.1C418.6,229.9,419.1,229.8,419.7,230.1 M434.4,234c0.5,0.3,0.9,0.7,0.8,1.1c-0.1,0.4-0.5,0.4-1,0.2
			c-0.5-0.3-0.9-0.7-0.8-1.1C433.5,233.8,433.9,233.7,434.4,234 M420.5,226.9c0.5,0.3,0.9,0.7,0.8,1.1c-0.1,0.4-0.6,0.4-1.1,0.2
			c-0.5-0.3-0.9-0.7-0.8-1.1C419.5,226.7,419.9,226.6,420.5,226.9 M434.6,230.5c0.5,0.3,0.9,0.8,0.9,1.2c0,0.4-0.5,0.4-1,0.2
			c-0.5-0.3-0.9-0.8-0.9-1.2C433.6,230.3,434.1,230.3,434.6,230.5 M430.3,228.4c0.5,0.3,0.8,0.7,0.8,1c-0.1,0.4-0.5,0.4-1,0.1
			c-0.5-0.3-0.8-0.7-0.8-1C429.4,228.2,429.8,228.1,430.3,228.4 M426,226.2c0.5,0.3,0.8,0.7,0.8,1c-0.1,0.3-0.5,0.4-1,0.1
			c-0.5-0.3-0.8-0.7-0.8-1C425.1,225.9,425.5,225.9,426,226.2 M421.2,223.7c0.6,0.3,0.9,0.8,0.9,1.1c-0.1,0.4-0.6,0.4-1.2,0.1
			c-0.6-0.3-0.9-0.8-0.9-1.2C420.2,223.5,420.7,223.4,421.2,223.7"/>
	</g>
</g>
</svg>
