<?xml version="1.0" encoding="UTF-8" standalone="no"?>
<svg
   viewBox="0 0 1000 499.61411"
   version="1.1"
   id="svg10"
   sodipodi:docname="STC.svg"
   width="1000"
   height="499.61411"
   inkscape:version="1.2.1 (9c6d41e410, 2022-07-14)"
   xmlns:inkscape="http://www.inkscape.org/namespaces/inkscape"
   xmlns:sodipodi="http://sodipodi.sourceforge.net/DTD/sodipodi-0.dtd"
   xmlns="http://www.w3.org/2000/svg"
   xmlns:svg="http://www.w3.org/2000/svg">
  <defs
     id="defs14" />
  <sodipodi:namedview
     id="namedview12"
     pagecolor="#ffffff"
     bordercolor="#666666"
     borderopacity="1.0"
     inkscape:showpageshadow="2"
     inkscape:pageopacity="0.0"
     inkscape:pagecheckerboard="0"
     inkscape:deskcolor="#d1d1d1"
     showgrid="false"
     inkscape:zoom="0.70710678"
     inkscape:cx="528.20877"
     inkscape:cy="251.73001"
     inkscape:window-width="1366"
     inkscape:window-height="705"
     inkscape:window-x="-8"
     inkscape:window-y="-8"
     inkscape:window-maximized="1"
     inkscape:current-layer="svg10" />
  <!-- Generator: Sketch 61 (89581) - https://sketch.com -->
  <title
     id="title2">stc logo</title>
  <desc
     id="desc4">Created with Sketch.</desc>
  <path
     id="path885"
     style="fill:#4f008c;fill-rule:nonzero;stroke:none;stroke-width:2.50276"
     d="M 382.87891 0 L 382.87891 105.05859 L 485.59961 105.05859 L 485.59961 0 L 382.87891 0 z M 485.59961 105.05859 L 485.59961 204.67188 L 588.32227 204.67188 L 588.32227 105.05859 L 485.59961 105.05859 z M 485.59961 204.67188 L 382.87891 204.67188 L 382.87891 381.32422 C 382.87891 417.12089 393.77561 445.92122 413.22461 466.15039 C 435.01688 487.94404 466.92543 499.61328 506.61328 499.61328 C 547.08267 499.61328 575.87133 487.1637 588.32227 476.26758 L 588.32227 392.2207 C 578.98786 399.22702 560.31224 407.7793 536.18359 407.7793 C 519.06266 407.7793 506.61224 403.88983 497.26953 395.33008 C 489.48994 387.55047 485.59961 374.32629 485.59961 356.42383 L 485.59961 204.67188 z M 161.08594 93.388672 C 113.61849 93.388672 73.93025 108.9477 46.693359 133.84961 C 23.346271 155.64189 10.115234 185.2145 10.115234 217.9043 C 10.115234 246.69462 19.457645 270.82234 38.134766 289.49805 C 56.810501 308.17517 84.047085 322.17908 119.84375 330.74023 L 178.98828 344.75391 C 208.56153 351.75194 221.79297 362.64819 221.79297 382.10547 C 221.79297 406.22582 200.00117 420.23047 164.20312 420.23047 C 138.51967 420.23047 117.50847 411.67812 104.27734 397.66406 C 94.942929 388.33103 89.490063 375.87984 88.716797 361.86719 L 0 381.32422 C 2.3363659 407.77955 14.78577 431.1353 33.462891 449.80273 C 63.034765 480.93772 110.50262 499.61328 164.20312 499.61328 C 216.34054 499.61328 259.14412 483.274 287.1543 456.03711 C 308.17467 435.01809 320.625 407.00631 320.625 374.32617 C 320.625 344.75293 309.72907 318.28914 289.49023 298.05859 C 269.26108 277.81975 240.46055 263.03517 203.89062 256.03711 L 143.96484 244.35938 C 119.06433 239.68803 105.05859 227.23754 105.05859 210.11523 C 105.05859 187.5497 126.84103 171.99023 161.86719 171.99023 C 183.65118 171.99023 202.33616 178.98851 214.78711 191.43945 C 222.56671 199.99922 228.00916 210.8967 229.57227 223.34766 L 315.95312 203.89062 C 313.61813 178.98872 301.94105 157.20463 284.04688 139.30078 C 256.02841 111.28234 212.4501 93.388672 161.08594 93.388672 z M 817.89453 93.388672 C 762.64885 93.388672 712.83712 114.39922 677.03906 150.19727 C 641.24102 186.77685 619.45703 237.35096 619.45703 296.49609 C 619.45703 355.64122 642.02393 406.22648 678.60352 442.80469 C 714.3919 478.60274 764.98312 499.61328 821.01172 499.61328 C 878.60204 499.61328 922.9615 478.60314 953.30664 449.03125 C 977.43529 425.68416 992.22039 398.44617 1000 370.42773 L 908.94727 340.08203 C 905.05746 354.08643 897.27761 368.87357 884.81836 380.54297 C 870.03242 394.55702 849.80205 404.67188 821.01172 404.67188 C 794.55499 404.67188 769.64751 394.55679 751.75195 376.6543 C 733.84946 357.97719 722.96094 330.73931 722.96094 296.49609 C 722.96094 261.47961 733.84946 235.01706 751.75195 216.34961 C 769.64751 198.44576 793.77514 189.11133 820.23047 189.11133 C 848.24892 189.11133 867.70654 198.44541 881.71094 212.45117 C 893.38862 224.12886 900.38725 238.91524 905.05859 253.70117 L 997.66406 222.56641 C 990.65772 195.32951 975.87326 168.09093 954.08789 145.52539 C 922.96119 115.18025 877.82119 93.388672 817.89453 93.388672 z " />
</svg>
