<?xml version="1.0" encoding="utf-8"?>
<!-- Generator: Adobe Illustrator 21.0.0, SVG Export Plug-In . SVG Version: 6.00 Build 0)  -->
<svg version="1.1" id="Layer_1" xmlns="http://www.w3.org/2000/svg" xmlns:xlink="http://www.w3.org/1999/xlink" x="0px" y="0px"
	 width="795.2px" height="113.2px" viewBox="0 0 795.2 113.2" style="enable-background:new 0 0 795.2 113.2;" xml:space="preserve"
	>
<style type="text/css">
	.st0{fill:#77BD43;}
	.st1{fill:none;stroke:#1C1D1B;stroke-width:0;stroke-linecap:round;stroke-linejoin:round;}
</style>
<rect x="665.3" y="17.9" class="st0" width="25.4" height="17.9"/>
<g>
	<path class="st0" d="M510.1,0v66.3h19.2c4,0,6-1,7.1-3c4.6-11.9,15.6-20.6,33.8-20.6c25,0,36.3,16.4,36.3,34.9
		c0,18.5-11.3,35.1-36.3,35.1c-20.2,0-31.5-10.8-35.1-24.7c-4.4,3.2-10.4,3.7-16.1,3.7h-10.6c-4.2,14-16,20.7-35.8,20.7
		c-25.2,0-37.6-11-37.6-33.8V45.2h25.4V73c0,8.4,0,18.9,12.3,18.9c12,0,12-10.5,12-18.9V0H510.1z M581.1,77.6
		c0-7.1-1.3-16.4-10.9-16.4c-9.6,0-10.9,9.4-10.9,16.4c0,7.1,1.3,16.6,10.9,16.6C579.8,94.2,581.1,84.7,581.1,77.6 M617.3,91.7h25.4
		V0h-25.4V91.7z M691.3,91.7l0,1.5c0,18.2-11.9,19.9-22.7,19.9c-5.4,0-11.2-0.8-16.3-0.8V93.1c1.9,0.3,3.8,0.4,5.8,0.4
		c6.4,0,7.2-2.7,7.2-8.9V45.2h25.4v21.1H722c6.6,0,8-2.7,8-8.9V0h25.4v71.8c0,16.9-10.6,19.6-20.7,19.9
		C734,91.8,691.3,91.7,691.3,91.7z M769.8,91.7h25.4V0h-25.4V91.7z"/>
	<line class="st1" x1="153" y1="86.9" x2="153" y2="91.8"/>
	<rect x="48" y="4.8" width="4.9" height="12.8"/>
	<path d="M127.9,86.8c-14-0.5-25.3-14-25.3-30.3c0-16.7,11.7-30.3,26.1-30.3c9,0,17.2,5.2,22,14l2.2,4v-9.7
		c-1.8-2.8-4.2-4.9-4.2-4.9c-5.5-5.3-12.6-8.3-20-8.3c-17.1,0-31,15.8-31,35.2c0,12.8,6.2,24.1,15.3,30.3H78.2
		c-9.8,0-12.2-0.4-12.2-10.2l0-46.4h-4.9v4.2h0L33,34.5c-15.9,0-33,9-33,28.7c0,19.6,17.1,28.6,33,28.6c10.5,0,21.9-4.1,28.2-12.8
		v0.1c0.5,11.5,6.8,12.5,17,12.7l74.8,0v-4.9L127.9,86.8z M61.2,65C60.1,80,45.8,86.9,33,86.9c-13.5,0-28.1-7.4-28.1-23.7
		c0-16.4,14.6-23.8,28.2-23.8l28.1-0.1V65z"/>
	<rect x="203.6" y="4.8" width="4.9" height="12.8"/>
	<rect x="61.1" y="4.8" width="4.9" height="12.8"/>
	<path d="M415.4,0v76.6c0,9.9-2.3,10.2-12,10.2h-11.9V0h-4.9v86.8h-33c7.4-5.1,10.9-13.8,8.9-23.3c-2.3-11.1-12.6-23-29.7-23
		c-23,0-52.7,15.9-83.9,44.6c-1.2,1.1-2.7,1.6-4.4,1.6c-3.5,0-6.4-2.9-6.4-6.4V50.2h-4.9v26.5c0,9.9-2.3,10.2-12.2,10.2h-12.6V30.2
		h-4.9v56.7h-25V0h-4.9v91.7h3.7h43.8c6.7-0.1,11.8-0.4,14.6-4.3c2.1,2.6,5.3,4.2,8.7,4.3h158.8c10.2-0.1,16.9-1.2,16.9-14.2V0
		H415.4z M336.2,86.8h-82c18-16.3,50.3-41.5,78.5-41.5c15.6,0,25.4,12,25.5,23.1C358.3,77.1,352.5,86.5,336.2,86.8"/>
</g>
</svg>
